<svg width="1440" height="1238" viewBox="0 0 1440 1238" fill="none" xmlns="http://www.w3.org/2000/svg">
<path opacity="0.297283" fill-rule="evenodd" clip-rule="evenodd" d="M1375.38 -2360.85C1408.56 -2411.35 1478.61 -2421.11 1524.33 -2381.6L2591.22 -1459.74C2635.87 -1421.15 2637.58 -1352.49 2594.89 -1311.74L653.712 541.277C635.867 558.311 612.354 568.149 587.695 568.897L-380.742 598.272C-461.651 600.726 -511.798 511.05 -467.346 443.402L1375.38 -2360.85Z" fill="#91B7DC"/>
<g filter="url(#filter0_d)">
<path fill-rule="evenodd" clip-rule="evenodd" d="M316.402 -1189.94C354.63 -1232.93 421.163 -1234.88 461.843 -1194.2L1284.21 -371.84C1323.26 -332.788 1323.26 -269.471 1284.21 -230.419L425.255 628.532C401.403 652.384 367.133 662.604 334.113 655.712L-895.969 398.969C-971.213 383.264 -1001.34 292.073 -950.268 234.631L316.402 -1189.94Z" fill="#F6F9FD"/>
</g>
<defs>
<filter id="filter0_d" x="-1145.01" y="-1311.92" width="2548.92" height="2548.92" filterUnits="userSpaceOnUse" color-interpolation-filters="sRGB">
<feFlood flood-opacity="0" result="BackgroundImageFix"/>
<feColorMatrix in="SourceAlpha" type="matrix" values="0 0 0 0 0 0 0 0 0 0 0 0 0 0 0 0 0 0 127 0"/>
<feOffset dy="2"/>
<feGaussianBlur stdDeviation="24.5"/>
<feColorMatrix type="matrix" values="0 0 0 0 0.027451 0 0 0 0 0.164706 0 0 0 0 0.266667 0 0 0 0.271031 0"/>
<feBlend mode="normal" in2="BackgroundImageFix" result="effect1_dropShadow"/>
<feBlend mode="normal" in="SourceGraphic" in2="effect1_dropShadow" result="shape"/>
</filter>
</defs>
</svg>
