<svg width="157" height="47" viewBox="0 0 157 47" fill="none" xmlns="http://www.w3.org/2000/svg">
<path d="M97.3782 36.7179C88.2656 43.3798 75.0574 46.9342 63.6854 46.9342C47.74 46.9342 33.385 41.0847 22.5249 31.3558C21.6717 30.5907 22.4362 29.5481 23.4601 30.1439C35.1802 36.9074 49.6717 40.9764 64.641 40.9764C74.7366 40.9764 85.8424 38.9047 96.054 34.6055C97.5966 33.9556 98.8867 35.6075 97.3782 36.7179Z" fill="#91B7DC"/>
<path d="M101.167 32.4187C100.006 30.9428 93.4669 31.7214 90.5317 32.0667C89.6375 32.175 89.501 31.4032 90.3065 30.848C95.5147 27.2124 104.061 28.2618 105.057 29.4804C106.054 30.7059 104.798 39.2026 99.9038 43.258C99.1529 43.8808 98.4362 43.5491 98.7707 42.7231C99.8696 40.0015 102.334 33.9014 101.167 32.4187Z" fill="#91B7DC"/>
<path d="M90.7364 5.18188V1.6478C90.7364 1.11294 91.146 0.75412 91.6374 0.75412H107.59C108.102 0.75412 108.511 1.11972 108.511 1.6478V4.67411C108.504 5.18188 108.074 5.84537 107.31 6.89476L99.0436 18.6006C102.115 18.5261 105.358 18.9797 108.143 20.5369C108.771 20.8889 108.941 21.4035 108.989 21.9113V25.6823C108.989 26.1968 108.416 26.7994 107.815 26.488C102.907 23.9356 96.3883 23.658 90.9617 26.515C90.4088 26.8129 89.8286 26.2172 89.8286 25.7026V22.1211C89.8286 21.5457 89.8354 20.564 90.4156 19.6906L99.9924 6.06879H91.6579C91.146 6.06879 90.7364 5.70997 90.7364 5.18188Z" fill="#91B7DC"/>
<path d="M32.5452 27.2327H27.692C27.2278 27.1988 26.8592 26.8535 26.8251 26.4135V1.7087C26.8251 1.21447 27.2415 0.821789 27.7602 0.821789H32.2858C32.7568 0.842086 33.1322 1.20092 33.1664 1.64776V4.87719H33.2551C34.436 1.75609 36.6544 0.300476 39.6442 0.300476C42.6817 0.300476 44.5794 1.75609 45.9445 4.87719C47.1186 1.75609 49.7876 0.300476 52.6476 0.300476C54.6818 0.300476 56.907 1.13322 58.2654 3.00182C59.8012 5.0803 59.4872 8.09984 59.4872 10.747L59.4804 26.339C59.4804 26.8332 59.064 27.2327 58.5452 27.2327H53.6988C53.2142 27.1988 52.8251 26.8129 52.8251 26.339V13.2453C52.8251 12.2026 52.9207 9.60285 52.6886 8.61438C52.3268 6.95567 51.2415 6.48851 49.8353 6.48851C48.6613 6.48851 47.4326 7.2671 46.9343 8.51283C46.436 9.75856 46.4838 11.8438 46.4838 13.2453V26.339C46.4838 26.8332 46.0674 27.2327 45.5486 27.2327H40.7022C40.2108 27.1988 39.8285 26.8129 39.8285 26.339L39.8217 13.2453C39.8217 10.4898 40.279 6.43435 36.8319 6.43435C33.3438 6.43435 33.4804 10.3882 33.4804 13.2453V26.339C33.4804 26.8332 33.064 27.2327 32.5452 27.2327Z" fill="#91B7DC"/>
<path d="M122.245 0.300476C129.446 0.300476 133.344 6.43435 133.344 14.2337C133.344 21.769 129.037 27.7472 122.245 27.7472C115.173 27.7472 111.324 21.6133 111.324 13.9697C111.324 6.27864 115.221 0.300476 122.245 0.300476ZM122.286 5.34434C118.709 5.34434 118.484 10.1783 118.484 13.1911C118.484 16.2106 118.436 22.656 122.245 22.656C126.006 22.656 126.184 17.4564 126.184 14.2879C126.184 12.2026 126.095 9.71117 125.46 7.73425C124.914 6.0146 123.829 5.34434 122.286 5.34434Z" fill="#91B7DC"/>
<path d="M142.682 27.2327H137.849C137.365 27.1988 136.976 26.8129 136.976 26.339L136.969 1.62745C137.01 1.17384 137.412 0.821789 137.904 0.821789H142.402C142.825 0.842086 143.173 1.12645 143.269 1.51236V5.29017H143.358C144.716 1.9118 146.621 0.300476 149.972 0.300476C152.15 0.300476 154.272 1.07906 155.638 3.2117C156.907 5.18862 156.907 8.51283 156.907 10.9027V26.4541C156.853 26.8874 156.45 27.2327 155.972 27.2327H151.105C150.662 27.1988 150.293 26.8738 150.245 26.4541V13.0354C150.245 10.334 150.559 6.38019 147.208 6.38019C146.027 6.38019 144.941 7.16555 144.402 8.35711C143.72 9.86689 143.631 11.3699 143.631 13.0354V26.339C143.624 26.8332 143.201 27.2327 142.682 27.2327Z" fill="#91B7DC"/>
<path d="M14.3952 15.4321V14.3894C10.8867 14.3894 7.18018 15.1342 7.18018 19.237C7.18018 21.3154 8.2655 22.7237 10.129 22.7237C11.4942 22.7237 12.716 21.8909 13.4874 20.5369C14.443 18.8714 14.3952 17.3074 14.3952 15.4321ZM19.2894 27.165C18.9686 27.4493 18.5044 27.4696 18.1426 27.2801C16.5317 25.9531 16.245 25.337 15.3577 24.071C12.6955 26.7655 10.8116 27.5712 7.35765 27.5712C3.27573 27.5712 0.0948486 25.073 0.0948486 20.0697C0.0948486 16.1633 2.23137 13.5025 5.26891 12.2026C7.90373 11.0517 11.5829 10.8486 14.3952 10.5304V9.90752C14.3952 8.76334 14.4839 7.40928 13.8082 6.42082C13.2143 5.53391 12.0812 5.16832 11.0846 5.16832C9.23479 5.16832 7.58291 6.10939 7.18018 8.05923C7.09826 8.49253 6.77745 8.91906 6.34059 8.93937L1.63069 8.43836C1.23478 8.35035 0.79792 8.03215 0.907135 7.4296C1.99246 1.76964 7.14605 0.0635223 11.7604 0.0635223C14.1222 0.0635223 17.2075 0.686388 19.071 2.4602C21.4327 4.647 21.2075 7.565 21.2075 10.7403V18.2417C21.2075 20.4962 22.1495 21.4847 23.0368 22.7034C23.3508 23.1367 23.4191 23.658 23.0232 23.9829C22.0334 24.8021 20.2723 26.3255 19.3031 27.1785L19.2894 27.165" fill="#91B7DC"/>
<path d="M77.2354 15.4321V14.3895C73.7269 14.3895 70.0204 15.1342 70.0204 19.237C70.0204 21.3155 71.1057 22.7237 72.9692 22.7237C74.3344 22.7237 75.5562 21.891 76.3276 20.5369C77.2832 18.8714 77.2354 17.3075 77.2354 15.4321ZM82.1296 27.165C81.8088 27.4494 81.3446 27.4697 80.9829 27.2801C79.3719 25.9531 79.0852 25.337 78.1979 24.071C75.5358 26.7656 73.6518 27.5712 70.1979 27.5712C66.1159 27.5712 62.9351 25.073 62.9351 20.0697C62.9351 16.1633 65.0716 13.5026 68.1091 12.2027C70.7439 11.0517 74.4231 10.8486 77.2354 10.5304V9.90755C77.2354 8.76337 77.3242 7.40931 76.6484 6.42085C76.0545 5.53394 74.9214 5.16835 73.9248 5.16835C72.075 5.16835 70.4231 6.10942 70.0204 8.05926C69.9385 8.49256 69.6177 8.91909 69.1808 8.9394L64.4709 8.43839C64.075 8.35038 63.6381 8.03218 63.7473 7.42963C64.8327 1.76967 69.9863 0.0635529 74.6006 0.0635529C76.9624 0.0635529 80.0477 0.686419 81.9112 2.46023C84.273 4.64703 84.0477 7.56503 84.0477 10.7403V18.2418C84.0477 20.4963 84.9897 21.4847 85.8771 22.7034C86.1911 23.1367 86.2593 23.658 85.8634 23.983C84.8737 24.8022 83.1126 26.3255 82.1433 27.1785L82.1296 27.165" fill="#91B7DC"/>
</svg>
