<svg width="319" height="319" viewBox="0 0 319 319" fill="none" xmlns="http://www.w3.org/2000/svg">
<g filter="url(#filter0_d)">
<rect x="274.164" y="42.8649" width="163.285" height="323.973" rx="15" transform="rotate(90 274.164 42.8649)" fill="#F6F9FD"/>
</g>
<path d="M183.564 180.292H181.179C179.508 180.292 177.905 180.956 176.723 182.138C175.541 183.32 174.877 184.923 174.877 186.594C174.877 188.265 175.541 189.868 176.723 191.05C177.905 192.232 179.508 192.896 181.179 192.896H183.589C192.474 192.938 201.042 189.6 207.557 183.559C214.073 177.518 218.047 169.226 218.675 160.363C219.304 151.5 216.539 142.73 210.941 135.83C205.344 128.931 197.332 124.417 188.53 123.205C188.237 123.154 187.972 123.002 187.78 122.775C187.589 122.549 187.483 122.262 187.481 121.965V111.997C187.481 110.845 187.164 109.715 186.566 108.73C185.969 107.746 185.112 106.943 184.09 106.411C183.069 105.879 181.92 105.637 180.771 105.712C179.621 105.786 178.514 106.175 177.569 106.835L153.48 123.679C152.382 124.448 151.558 125.546 151.127 126.816C150.696 128.085 150.681 129.458 151.084 130.737C151.487 132.015 152.287 133.132 153.368 133.924C154.449 134.717 155.755 135.144 157.095 135.144H181.114C195.377 135.144 206.135 144.849 206.135 157.72C206.129 163.705 203.749 169.442 199.517 173.673C195.285 177.905 189.548 180.285 183.564 180.292Z" fill="url(#paint0_linear)"/>
<path d="M130.495 192.236C130.789 192.285 131.055 192.436 131.247 192.663C131.439 192.89 131.544 193.178 131.544 193.476V203.438C131.543 204.591 131.858 205.722 132.455 206.708C133.053 207.694 133.91 208.497 134.932 209.03C135.955 209.562 137.104 209.804 138.254 209.728C139.404 209.653 140.512 209.263 141.456 208.601L165.52 191.762C166.617 190.992 167.44 189.893 167.87 188.624C168.3 187.354 168.315 185.981 167.912 184.703C167.509 183.425 166.71 182.309 165.63 181.515C164.55 180.722 163.245 180.294 161.905 180.292H137.886C123.623 180.292 112.865 170.587 112.865 157.725C112.869 151.739 115.248 146 119.479 141.766C123.711 137.532 129.45 135.151 135.436 135.144H137.846C139.517 135.144 141.12 134.48 142.302 133.298C143.484 132.116 144.148 130.513 144.148 128.842C144.148 127.17 143.484 125.567 142.302 124.385C141.12 123.204 139.517 122.54 137.846 122.54H135.436C126.556 122.508 117.996 125.85 111.488 131.891C104.98 137.932 101.011 146.22 100.383 155.078C99.7547 163.935 102.515 172.7 108.106 179.599C113.697 186.498 121.7 191.015 130.495 192.236Z" fill="url(#paint1_linear)"/>
<defs>
<filter id="filter0_d" x="0.163696" y="0.864868" width="318" height="318" filterUnits="userSpaceOnUse" color-interpolation-filters="sRGB">
<feFlood flood-opacity="0" result="BackgroundImageFix"/>
<feColorMatrix in="SourceAlpha" type="matrix" values="0 0 0 0 0 0 0 0 0 0 0 0 0 0 0 0 0 0 127 0"/>
<feOffset dy="2"/>
<feGaussianBlur stdDeviation="22"/>
<feColorMatrix type="matrix" values="0 0 0 0 0.027451 0 0 0 0 0.164706 0 0 0 0 0.266667 0 0 0 0.271031 0"/>
<feBlend mode="normal" in2="BackgroundImageFix" result="effect1_dropShadow"/>
<feBlend mode="normal" in="SourceGraphic" in2="effect1_dropShadow" result="shape"/>
</filter>
<linearGradient id="paint0_linear" x1="150.792" y1="105.698" x2="237.158" y2="142.844" gradientUnits="userSpaceOnUse">
<stop stop-color="#4DA7FF"/>
<stop offset="1" stop-color="#0074E4"/>
</linearGradient>
<linearGradient id="paint1_linear" x1="100.295" y1="122.539" x2="186.608" y2="159.627" gradientUnits="userSpaceOnUse">
<stop stop-color="#4DA7FF"/>
<stop offset="1" stop-color="#0074E4"/>
</linearGradient>
</defs>
</svg>
