<svg width="319" height="319" viewBox="0 0 319 319" fill="none" xmlns="http://www.w3.org/2000/svg">
<g filter="url(#filter0_d)">
<rect x="274.17" y="42.0663" width="163.285" height="323.973" rx="15" transform="rotate(90 274.17 42.0663)" fill="#F6F9FD"/>
</g>
<path d="M116.797 149.756L130.144 155.291C128.639 159.09 127.438 163.002 126.554 166.992L126.048 169.293L145.181 188.438L147.483 187.944C151.472 187.059 155.385 185.859 159.184 184.354L164.718 197.7C164.772 197.833 164.859 197.949 164.969 198.04C165.08 198.131 165.211 198.193 165.351 198.22C165.491 198.247 165.636 198.239 165.773 198.197C165.909 198.154 166.033 198.079 166.133 197.977L174.498 189.612C175.863 188.247 176.927 186.611 177.62 184.81C178.314 183.008 178.622 181.081 178.525 179.153L178.226 173.78C193.712 162.344 209.383 142.289 213.652 107.289C213.773 106.411 213.689 105.518 213.408 104.678C213.127 103.838 212.656 103.074 212.031 102.446C211.407 101.818 210.645 101.342 209.807 101.057C208.968 100.771 208.075 100.683 207.197 100.8C172.208 105.103 152.142 120.785 140.706 136.226L135.344 135.95C133.42 135.845 131.496 136.144 129.695 136.828C127.894 137.511 126.255 138.564 124.885 139.919L116.521 148.284C116.405 148.382 116.317 148.51 116.266 148.653C116.216 148.796 116.204 148.951 116.232 149.1C116.26 149.25 116.327 149.389 116.426 149.504C116.525 149.62 116.653 149.706 116.797 149.756ZM170.459 129.368C171.909 127.924 173.754 126.941 175.762 126.544C177.77 126.148 179.85 126.355 181.74 127.14C183.63 127.925 185.245 129.252 186.381 130.954C187.517 132.656 188.124 134.657 188.124 136.703C188.124 138.75 187.517 140.75 186.381 142.452C185.245 144.155 183.63 145.482 181.74 146.267C179.85 147.051 177.77 147.259 175.762 146.862C173.754 146.465 171.909 145.483 170.459 144.038C169.494 143.076 168.728 141.933 168.205 140.674C167.683 139.415 167.414 138.066 167.414 136.703C167.414 135.34 167.683 133.991 168.205 132.732C168.728 131.473 169.494 130.33 170.459 129.368ZM114.3 189.969C112.085 189.191 109.707 189.001 107.397 189.416C107.192 189.461 106.978 189.452 106.777 189.392C106.576 189.332 106.393 189.221 106.246 189.071C106.064 188.89 105.942 188.657 105.897 188.403C105.852 188.15 105.885 187.889 105.993 187.656C108.444 182.386 114.945 171.79 126.715 180.35C126.776 180.405 126.826 180.472 126.859 180.548C126.893 180.623 126.91 180.705 126.91 180.787C126.91 180.87 126.893 180.951 126.859 181.027C126.826 181.102 126.776 181.169 126.715 181.224C125.139 182.465 123.877 184.06 123.032 185.879C122.186 187.697 121.781 189.69 121.848 191.694C121.857 191.93 121.954 192.153 122.12 192.32C122.287 192.486 122.51 192.583 122.745 192.592C124.742 192.672 126.729 192.283 128.547 191.456C130.366 190.628 131.964 189.386 133.216 187.829C133.271 187.761 133.34 187.707 133.418 187.67C133.497 187.632 133.583 187.613 133.67 187.613C133.757 187.613 133.843 187.632 133.922 187.67C134 187.707 134.069 187.761 134.124 187.829C135.758 189.773 140.257 196.124 135.275 202.257C133.1 204.871 129.984 206.524 126.6 206.859C121.767 207.377 112.839 208.953 109.192 213.118C109.045 213.291 108.855 213.422 108.64 213.495C108.425 213.569 108.194 213.583 107.972 213.536C107.75 213.488 107.545 213.382 107.379 213.227C107.213 213.073 107.092 212.876 107.029 212.658C105.74 208.263 103.738 198.437 114.3 189.969Z" fill="url(#paint0_linear)"/>
<defs>
<filter id="filter0_d" x="0.169678" y="0.0662842" width="318" height="318" filterUnits="userSpaceOnUse" color-interpolation-filters="sRGB">
<feFlood flood-opacity="0" result="BackgroundImageFix"/>
<feColorMatrix in="SourceAlpha" type="matrix" values="0 0 0 0 0 0 0 0 0 0 0 0 0 0 0 0 0 0 127 0"/>
<feOffset dy="2"/>
<feGaussianBlur stdDeviation="22"/>
<feColorMatrix type="matrix" values="0 0 0 0 0.027451 0 0 0 0 0.164706 0 0 0 0 0.266667 0 0 0 0.271031 0"/>
<feBlend mode="normal" in2="BackgroundImageFix" result="effect1_dropShadow"/>
<feBlend mode="normal" in="SourceGraphic" in2="effect1_dropShadow" result="shape"/>
</filter>
<linearGradient id="paint0_linear" x1="105.877" y1="100.75" x2="232.903" y2="167.741" gradientUnits="userSpaceOnUse">
<stop stop-color="#4DA7FF"/>
<stop offset="1" stop-color="#0074E4"/>
</linearGradient>
</defs>
</svg>
