<svg width="118" height="47" viewBox="0 0 118 47" fill="none" xmlns="http://www.w3.org/2000/svg">
<g clip-path="url(#clip0)">
<path d="M15.1817 10.2764C6.92189 10.2764 0.039032 13.7806 0.039032 24.3526C0.039032 32.728 4.66726 38.0023 15.3949 38.0023C28.0219 38.0023 28.8314 29.6845 28.8314 29.6845H22.713C22.713 29.6845 21.4012 34.1633 15.0217 34.1633C9.82581 34.1633 6.08873 30.6533 6.08873 25.7336H29.4712V22.6464C29.4712 17.7792 26.3814 10.2764 15.1817 10.2764ZM14.9684 14.222C19.9143 14.222 23.2862 17.252 23.2862 21.7933H6.22405C6.22405 16.9721 10.6251 14.222 14.9684 14.222Z" fill="#91B7DC"/>
<path d="M29.4669 0.0390778V32.693C29.4669 34.5466 29.3346 37.1492 29.3346 37.1492H35.1702C35.1702 37.1492 35.3797 35.28 35.3797 33.5717C35.3797 33.5717 38.2628 38.0823 46.1024 38.0823C54.3578 38.0823 59.9654 32.3508 59.9654 24.1393C59.9654 16.5003 54.8147 10.3563 46.1157 10.3563C37.9698 10.3563 35.4386 14.7552 35.4386 14.7552V0.0390778H29.4669ZM44.6095 14.3952C50.2155 14.3952 53.7804 18.5559 53.7804 24.1393C53.7804 30.1265 49.6631 34.0433 44.6495 34.0433C38.6661 34.0433 35.4386 29.3716 35.4386 24.1926C35.4386 19.3669 38.3348 14.3952 44.6095 14.3952Z" fill="#91B7DC"/>
<path d="M74.4683 10.2764C62.0421 10.2764 61.2451 17.0803 61.2451 18.1676H67.4302C67.4302 18.1676 67.7545 14.1953 74.0417 14.1953C78.1273 14.1953 81.2931 16.0653 81.2931 19.6605V20.9402H74.0417C64.415 20.9402 59.3257 23.7564 59.3257 29.4712C59.3257 35.0955 64.028 38.1556 70.3827 38.1556C79.0431 38.1556 81.833 33.3702 81.833 33.3702C81.833 35.2736 81.9797 37.1492 81.9797 37.1492H87.4781C87.4781 37.1492 87.2649 34.8243 87.2649 33.3369V20.4803C87.2649 12.0504 80.4653 10.2764 74.4683 10.2764ZM81.2931 24.7792V26.4854C81.2931 28.7107 79.9199 34.2433 71.8356 34.2433C67.4087 34.2433 65.5107 32.0339 65.5107 29.4712C65.5107 24.8092 71.9026 24.7792 81.2931 24.7792Z" fill="#91B7DC"/>
<path d="M83.9343 11.3438H90.8924L100.878 31.3499L110.841 11.3438H117.144L98.9969 46.961H92.3853L97.622 37.0322L83.9343 11.3438Z" fill="#91B7DC"/>
</g>
<defs>
<clipPath id="clip0">
<rect width="117.183" height="47" fill="white"/>
</clipPath>
</defs>
</svg>
