<svg width="99" height="47" viewBox="0 0 99 47" fill="none" xmlns="http://www.w3.org/2000/svg">
<g clip-path="url(#clip0)">
<path d="M10.6171 16.9761V3.69581C10.6171 3.20372 10.6662 2.90858 11.5022 2.90858H22.7573C24.7237 2.90858 25.8049 4.58122 26.5916 7.72895L27.2305 10.2379H29.1472C29.4909 3.10612 29.7855 0.00718689 29.7855 0.00718689C29.7855 0.00718689 24.9689 0.548075 22.1182 0.548075H7.71787L1.90735e-05 0.302031V2.36799L2.60554 2.85978C4.42411 3.2043 4.86562 3.59733 5.01425 5.27026C5.01425 5.27026 5.162 10.1888 5.162 18.3051C5.162 26.4201 5.01425 31.2902 5.01425 31.2902C5.01425 32.7656 4.42411 33.3065 2.60554 33.6519L1.90735e-05 34.1439V36.2087L7.71787 35.9633H20.5954C23.4952 35.9633 30.2287 36.2087 30.2287 36.2087C30.3756 34.4376 31.3594 26.4201 31.5068 25.5359H29.6883L27.7713 29.9136C26.2473 33.3558 24.036 33.6022 21.578 33.6022H14.254C11.7962 33.6022 10.6166 32.6183 10.6166 30.5035V19.2887C10.6166 19.2887 15.9739 19.2886 17.8412 19.4365C19.2177 19.5353 20.0528 19.9286 20.4958 21.8467L21.0859 24.4044H23.1983L23.0514 17.9602L23.346 11.4681H21.2331L20.5454 14.3207C20.1025 16.1897 19.8081 16.5348 17.8909 16.7309C15.7286 16.9775 10.6163 16.9281 10.6163 16.9281V16.9769H10.6171V16.9761ZM39.7634 5.0733C39.0752 8.12285 38.3869 10.4837 35.9785 12.0578C34.5042 13.0411 33.0293 13.385 32.4404 13.4344V15.3034H36.8145V30.4036C36.8145 34.6343 39.6165 36.7005 43.3515 36.7005C46.2517 36.7005 49.2493 35.4709 50.2818 32.9126L49.2493 31.5844C48.7576 32.421 47.1858 33.6504 45.2194 33.6504C43.0572 33.6504 41.8775 32.1744 41.8775 28.437V15.1076L49.1524 15.6491L49.5451 12.3036L41.8778 12.599V5.12211L39.7634 5.0733ZM55.2955 28.2997L53.4279 28.3488C53.526 29.4305 53.5756 30.8083 53.5756 32.087C53.5756 33.4152 53.5266 34.6448 53.4279 35.2348C53.4279 35.2348 57.1634 36.6108 60.948 36.6108C66.0598 36.6108 70.1396 34.1515 70.1396 29.3312C70.1396 21.0688 57.7536 22.2987 57.7536 16.7397C57.7536 14.4283 59.8177 13.5425 62.0787 13.5425C63.8482 13.5425 65.3225 14.1819 65.6174 15.1173L66.8464 18.8062L68.6653 18.708C68.8131 16.7402 68.9109 14.4776 69.2061 12.658C67.6328 11.9693 64.3393 11.5751 62.2766 11.5751C57.4586 11.5751 53.5765 13.6904 53.5765 18.4126C53.5765 26.6264 65.667 24.9541 65.667 31.005C65.667 33.1682 64.3393 34.6933 61.3419 34.6933C58.5901 34.6933 57.2133 33.2673 56.6737 31.8401L55.2955 28.2997ZM84.9198 33.9821C82.0742 41.9364 78.591 43.9971 75.4514 43.9971C74.126 43.9971 73.4888 43.4074 73.2917 42.4761L72.5559 38.6455L70.495 38.7437C70.1025 41.0025 69.7101 43.5074 69.171 45.5689C70.3977 46.5005 72.4572 46.9926 74.0769 46.9926C77.463 46.9926 82.6138 46.5499 87.3229 35.3563L95.2224 16.6999C95.8607 15.1775 96.1051 15.0302 97.9695 14.2932L99 13.9014V12.1829L94.3388 12.4283L89.3348 12.1829V13.9014L90.6097 14.2932C91.8849 14.6869 92.4747 15.1775 92.4747 16.0614C92.4747 16.503 92.3269 16.9451 92.0811 17.6318C91.3452 19.4988 86.7824 30.5941 85.5572 32.9514L86.7822 32.5087C84.6231 27.1574 81.3375 18.2209 80.8464 16.7002C80.7483 16.4054 80.6992 16.1599 80.6992 15.9133C80.6992 15.1281 81.2388 14.4896 82.4165 14.2444L84.0356 13.9017V12.1832L77.3135 12.4286L71.9661 12.1832V13.9017L72.8494 14.1959C74.0758 14.5887 74.3704 14.9326 75.1062 16.6508C79.177 25.9798 81.0917 31.085 83.6907 37.763L84.9198 33.9821Z" fill="#91B7DC"/>
</g>
<defs>
<clipPath id="clip0">
<rect width="99" height="47" fill="white"/>
</clipPath>
</defs>
</svg>
