<svg width="765" height="486" viewBox="0 0 765 486" fill="none" xmlns="http://www.w3.org/2000/svg">
<g clip-path="url(#clip0)">
<path opacity="0.5" d="M209.195 318.287C158.226 300.672 99.9494 285.761 52.3296 311.075C46.2943 314.283 40.3474 318.323 37.0955 324.333C28.5065 340.145 42.1588 360.651 35.505 377.365C28.8511 394.078 3.80852 402.493 5.85859 420.347C6.39761 425.014 8.92484 429.238 11.9027 432.88C30.5565 455.675 64.7537 457.982 93.6578 452.325C122.562 446.668 150.83 434.939 180.255 436.415C208.532 437.874 234.547 451.441 260.455 462.861C304.134 482.164 355.147 496.014 398.79 476.613C418.787 467.722 435.32 452.581 454.46 442.01C480.254 427.896 509.902 422.454 539.025 426.49C558.465 429.23 577.022 436.124 596.047 440.879C639.257 451.671 684.359 451.317 728.886 450.893C737.174 450.814 745.596 450.716 753.54 448.348C765.301 444.812 775.003 436.672 784.343 428.708C796.617 418.252 809.545 406.762 813.504 391.126C818.178 372.565 808.502 352.837 794.152 340.225C779.802 327.612 761.457 320.718 743.554 314.071C739.136 312.445 734.417 310.792 729.893 312.021C726.924 312.834 724.423 314.814 722.205 316.944C709.499 329.176 698.762 349.868 681.434 346.544C675.248 345.36 670.185 341.056 665.29 337.078C639.151 315.866 603.991 299.488 572.445 311.208C549.373 319.781 533.087 341.798 509.706 349.567C493.076 355.1 475.005 352.705 457.509 353.783C432.06 355.339 407.291 364.336 381.807 363.788C316.823 362.392 262.682 300.239 197.964 306.161C192.891 306.62 187.36 307.787 184.249 311.8" fill="#0074E4"/>
<path d="M127.245 259.166C127.245 259.166 73.2455 291.771 172.824 341.992C172.824 341.992 194.765 301.246 170.509 268.022C165.802 261.549 158.884 257.027 151.067 255.313C143.25 253.599 135.076 254.813 128.094 258.724L127.245 259.166Z" fill="#0074E4"/>
<path d="M127.89 258.485C127.89 258.485 174.123 293.84 172.833 341.966" stroke="#535461" stroke-miterlimit="10"/>
<path d="M810.438 232.005C821.377 272.017 774.712 386.009 774.712 386.009C774.712 386.009 676.521 311.65 665.572 271.637C662.708 262.044 661.791 251.974 662.873 242.021C663.955 232.067 667.015 222.431 671.873 213.677C676.731 204.923 683.29 197.229 691.164 191.047C699.037 184.865 708.067 180.319 717.721 177.677C727.376 175.035 737.462 174.35 747.385 175.662C757.308 176.974 766.87 180.256 775.506 185.317C784.143 190.377 791.682 197.114 797.679 205.13C803.676 213.146 808.011 222.28 810.429 231.996L810.438 232.005Z" fill="#0074E4"/>
<path opacity="0.1" d="M810.438 232.005C821.377 272.017 774.712 386.009 774.712 386.009C774.712 386.009 676.521 311.65 665.572 271.637C662.708 262.044 661.791 251.974 662.873 242.021C663.955 232.067 667.015 222.431 671.873 213.677C676.731 204.923 683.29 197.229 691.164 191.047C699.037 184.865 708.067 180.319 717.721 177.677C727.376 175.035 737.462 174.35 747.385 175.662C757.308 176.974 766.87 180.256 775.506 185.317C784.143 190.377 791.682 197.114 797.679 205.13C803.676 213.146 808.011 222.28 810.429 231.996L810.438 232.005Z" fill="black"/>
<path d="M718.591 179.601C718.591 179.601 779.713 271.893 775.145 386.23" stroke="#535461" stroke-miterlimit="10"/>
<path d="M14.6332 292.726C14.6332 292.726 -39.393 325.323 60.1941 375.517C60.1941 375.517 82.1351 334.771 57.8789 301.547C53.1718 295.074 46.2545 290.552 38.4374 288.838C30.6203 287.124 22.4463 288.338 15.4638 292.249L14.6332 292.726Z" fill="#0074E4"/>
<path d="M15.2518 292.045C15.2518 292.045 61.4842 327.4 60.1941 375.526" stroke="#535461" stroke-miterlimit="10"/>
<path d="M688.742 335.16H631.967C633.274 332.532 633.951 329.637 633.947 326.702V68.1192C633.947 63.077 631.944 58.2412 628.38 54.6758C624.815 51.1104 619.98 49.1074 614.939 49.1074H175.475C170.434 49.1074 165.599 51.1104 162.035 54.6758C158.47 58.2412 156.468 63.077 156.468 68.1192V326.711C156.463 329.645 157.141 332.541 158.447 335.169H99.6666C99.0041 335.169 98.3481 335.3 97.7364 335.554C97.1246 335.809 96.5692 336.182 96.1019 336.651C95.6347 337.121 95.2649 337.679 95.0138 338.292C94.7627 338.905 94.6352 339.562 94.6387 340.225V344.282C94.6387 351.741 97.6011 358.894 102.874 364.169C108.147 369.443 115.299 372.406 122.756 372.406H665.652C673.109 372.406 680.261 369.443 685.534 364.169C690.807 358.894 693.77 351.741 693.77 344.282V340.225C693.774 339.561 693.648 338.904 693.397 338.289C693.146 337.675 692.777 337.116 692.309 336.646C691.842 336.175 691.286 335.801 690.674 335.546C690.062 335.291 689.405 335.16 688.742 335.16ZM338.914 351.246L334.019 345.722H454.884L449.494 351.255L338.914 351.246Z" fill="url(#paint0_linear)"/>
<path d="M607.967 52.7665H182.403C171.051 52.7665 161.849 61.9709 161.849 73.3251V322.106C161.849 333.46 171.051 342.664 182.403 342.664H607.967C619.319 342.664 628.521 333.46 628.521 322.106V73.3251C628.521 61.9709 619.319 52.7665 607.967 52.7665Z" fill="#535461"/>
<path d="M617.714 95.0239H171.675V331.855H617.714V95.0239Z" fill="white"/>
<path d="M394.699 78.3189C396.871 78.3189 398.631 76.558 398.631 74.3858C398.631 72.2135 396.871 70.4526 394.699 70.4526C392.527 70.4526 390.767 72.2135 390.767 74.3858C390.767 76.558 392.527 78.3189 394.699 78.3189Z" fill="white"/>
<path d="M463.562 332.341L448.239 348.065H340.204L326.358 332.341H106.338C105.035 332.341 103.785 332.858 102.864 333.78C101.943 334.702 101.425 335.952 101.425 337.255V341.215C101.425 348.505 104.32 355.497 109.474 360.652C114.628 365.807 121.618 368.703 128.907 368.703H659.502C663.111 368.703 666.684 367.992 670.018 366.61C673.353 365.229 676.382 363.204 678.934 360.652C681.486 358.099 683.51 355.069 684.891 351.734C686.272 348.399 686.983 344.824 686.983 341.215V337.255C686.983 335.952 686.465 334.702 685.544 333.78C684.623 332.858 683.373 332.341 682.07 332.341H463.562Z" fill="#535461"/>
<path d="M228.662 109.767V311.216H561.708" stroke="#535461" stroke-width="2" stroke-miterlimit="10"/>
<path opacity="0.5" d="M293 280H258V303H293V280Z" fill="#0074E4"/>
<path opacity="0.7" d="M351 265H317V303H351V265Z" fill="#0074E4"/>
<path opacity="0.5" d="M410 243H376V303H410V243Z" fill="#0074E4"/>
<path opacity="0.8" d="M469.358 187.396H434.976V303.359H469.358V187.396Z" fill="#0074E4"/>
<path d="M528.307 146.12H493.924V303.35H528.307V146.12Z" fill="#0074E4"/>
<path d="M274.5 256.5L334.5 237.5L393 214L451.677 153.005L510.625 128.434" stroke="#535461" stroke-width="2" stroke-miterlimit="10"/>
<path d="M275.875 263.753C279.672 263.753 282.75 260.674 282.75 256.876C282.75 253.079 279.672 250 275.875 250C272.078 250 269 253.079 269 256.876C269 260.674 272.078 263.753 275.875 263.753Z" fill="#0074E4"/>
<path d="M392.875 220.806C396.672 220.806 399.75 217.728 399.75 213.93C399.75 210.132 396.672 207.053 392.875 207.053C389.078 207.053 386 210.132 386 213.93C386 217.728 389.078 220.806 392.875 220.806Z" fill="#0074E4"/>
<path d="M452.657 159.882C456.454 159.882 459.532 156.803 459.532 153.005C459.532 149.207 456.454 146.129 452.657 146.129C448.861 146.129 445.783 149.207 445.783 153.005C445.783 156.803 448.861 159.882 452.657 159.882Z" fill="#0074E4"/>
<path d="M333.875 244.753C337.672 244.753 340.75 241.674 340.75 237.876C340.75 234.079 337.672 231 333.875 231C330.078 231 327 234.079 327 237.876C327 241.674 330.078 244.753 333.875 244.753Z" fill="#0074E4"/>
<path d="M510.625 135.31C514.422 135.31 517.5 132.232 517.5 128.434C517.5 124.636 514.422 121.557 510.625 121.557C506.828 121.557 503.75 124.636 503.75 128.434C503.75 132.232 506.828 135.31 510.625 135.31Z" fill="#0074E4"/>
<path d="M766.397 340.95C762.774 339.756 757.401 338.378 753.142 338.864C749.086 337.388 739.551 333.56 733.039 327.798C733.227 322.131 733.082 316.459 732.606 310.81C729.275 272.919 736.768 247.941 736.768 247.941C736.768 247.941 742.653 228.885 742.008 213.072C742.388 213.788 742.6 214.213 742.6 214.213C743.112 200.575 747.76 186.459 751.242 177.665C751.375 177.627 751.505 177.58 751.631 177.524L755.519 168.296C755.829 167.758 756.075 167.185 756.252 166.59L756.88 165.132L756.694 165.052C756.756 164.814 756.818 164.557 756.88 164.301C759.363 153.792 761.298 128.867 761.298 128.867C767.961 102.634 752.143 86.4416 752.143 86.4416L725.298 63.3375C725.432 63.6383 725.521 63.9568 725.563 64.2832L725.342 64.0888C724.962 63.0016 724.547 61.7024 724.141 60.2175C725.087 59.5374 725.974 58.7775 726.791 57.946C729.844 55.0627 731.943 51.3161 732.809 47.207C733.33 43.9938 733.463 40.7296 733.207 37.4846L732.765 26.3391C732.745 24.1578 732.523 21.9831 732.102 19.8427C730.079 11.0041 721.021 4.81705 711.929 4.41047C709.035 4.39362 706.144 4.54709 703.269 4.87008C700.918 5.06328 698.557 5.11346 696.2 5.02034C695.931 5.03456 695.665 4.9634 695.44 4.81705C695.235 4.61289 695.118 4.33713 695.113 4.04808C695.066 3.53079 695.125 3.00946 695.286 2.51569C695.447 2.02191 695.707 1.56598 696.049 1.17553C696.405 0.863501 696.82 0.626066 697.269 0.477289L696.624 0.627544C696.942 0.376698 697.3 0.182372 697.684 0.0530396C695.327 0.467551 693.06 1.29008 690.986 2.48366C690.414 2.85926 689.89 3.30133 689.422 3.8006C688.186 4.88505 687.383 6.37882 687.16 8.00779C686.053 7.07283 685.227 5.84894 684.774 4.47235C684.633 3.90944 684.633 3.32056 684.774 2.75765C684.615 2.9521 684.462 3.15244 684.315 3.35867C684.315 3.2968 684.315 3.23494 684.315 3.17307C682.607 5.27262 681.398 7.73272 680.78 10.3677C680.542 10.0824 680.363 9.75257 680.254 9.3975C680.145 9.04243 680.107 8.66918 680.144 8.29947C680.011 8.71488 679.887 9.13029 679.773 9.5457C679.732 9.27021 679.732 8.99036 679.773 8.71487C678.732 11.9013 678.263 15.2466 678.385 18.5964C678.385 21.9374 679.87 27.1434 683.449 28.3189C683.634 28.3808 683.82 28.425 684.014 28.4692C682.001 31.5964 680.796 35.1744 680.506 38.8822C680.216 42.5901 680.85 46.312 682.352 49.7143C683.854 53.1165 686.177 56.0928 689.112 58.3764C692.047 60.6599 695.502 62.1793 699.169 62.7983C699.228 63.2049 699.284 63.6321 699.337 64.08H699.478C699.575 64.9638 699.655 65.9361 699.708 66.926C698.805 67.8111 697.816 68.6046 696.756 69.2947C693.752 71.0712 690.401 72.1804 686.93 72.5473C682.786 72.8726 678.758 74.0779 675.116 76.0828C670.83 78.4781 666.103 81.9693 664.618 86.2118C662.144 93.2827 648.518 104.287 639.381 105.657L636.129 105.471L635.891 105.4V105.462L635.095 105.418H635.051H634.839V105.462L634.017 105.418C634.017 105.418 633.938 105.798 633.823 106.47C629.228 104.888 619.464 100.504 606.757 88.9695C592.618 76.127 573.487 78.6548 566.109 80.2723C565.858 80.3277 565.63 80.4583 565.455 80.6468C565.28 80.8353 565.167 81.0726 565.13 81.3271C565.094 81.5816 565.136 81.8412 565.251 82.0713C565.366 82.3013 565.548 82.4908 565.773 82.6145C568.751 84.2497 573.364 86.6273 575.493 86.8924C575.493 86.8924 571.075 91.515 575.776 93.9633C576.34 94.2361 576.968 94.3482 577.592 94.2874C578.215 94.2266 578.81 93.9952 579.311 93.6186C581.59 91.9481 587.926 95.731 597.107 97.702C597.107 97.702 623.016 124.518 635.882 128.637C636.178 129.223 636.506 129.792 636.863 130.343L637.658 130.281V130.343H637.994L638.091 131.227C638.091 131.227 658.097 130.175 664.6 122.91C665.061 122.497 665.484 122.045 665.864 121.557L658.91 209.06H658.972L658.91 209.891H664.026C664.464 220.652 664 231.432 662.639 242.116V299.161C662.639 299.161 662.374 304.181 672.801 311.535C683.733 319.148 694.268 327.316 704.365 336.009L705.628 337.105C703.711 354.561 699.699 387.096 696.35 388.307L698.418 388.669C694.883 393.15 684.845 405.463 681.787 405.79C678.041 406.205 675.54 412.038 681.787 413.285C694.262 415.445 707.088 414.18 718.901 409.626C720.079 409.161 721.067 408.314 721.708 407.222C722.348 406.129 722.604 404.853 722.435 403.598L721.225 394.405C721.454 394.533 721.639 394.727 721.755 394.962C722.585 397.464 721.755 391.63 721.755 391.63C725.178 380.625 727.867 369.405 729.805 358.043L742.176 368.738C742.176 368.738 742.423 368.429 742.856 367.854C745.887 374.731 751.295 388.802 750.084 399.108C748.423 413.249 764.223 400.769 762.57 392.443C761.227 385.708 767.236 357.16 769.578 346.483C769.83 345.33 769.644 344.124 769.056 343.101C768.468 342.078 767.52 341.311 766.397 340.95Z" fill="url(#paint1_linear)"/>
<path d="M637.11 109.97C637.11 109.97 625.322 107.937 607.844 92.0807C594.015 79.5387 575.361 82.0047 568.168 83.5868C567.923 83.6398 567.7 83.7665 567.529 83.95C567.358 84.1335 567.247 84.3649 567.211 84.6132C567.176 84.8615 567.217 85.1147 567.33 85.3389C567.442 85.5631 567.621 85.7474 567.841 85.8671C570.748 87.4581 575.255 89.7827 577.367 90.0478C577.367 90.0478 573.01 94.5555 577.641 96.9684C578.195 97.2408 578.814 97.3536 579.429 97.2943C580.044 97.235 580.63 97.0059 581.122 96.6326C583.349 95.0063 589.534 98.7008 598.503 100.619C598.503 100.619 633.461 136.804 641.59 130.67L637.11 109.97Z" fill="#FEC3BE"/>
<path d="M697.295 60.7743C697.295 60.7743 700.547 74.5979 697.295 84.3557L711.929 86.3886L724.936 79.8834V71.3453C724.936 71.3453 718.839 58.3349 720.465 43.2915L697.295 60.7743Z" fill="#FEC3BE"/>
<path d="M738.73 360.403C738.73 360.403 749.333 381.139 747.672 394.962C746.011 408.786 761.492 396.589 759.866 388.457C758.55 381.881 764.417 353.986 766.706 343.61C766.954 342.489 766.777 341.315 766.208 340.317C765.64 339.319 764.721 338.568 763.631 338.21C758.744 336.601 750.562 334.63 746.453 337.644C740.382 342.107 738.73 360.403 738.73 360.403Z" fill="#8B416F"/>
<path d="M698.515 383.172C698.515 383.172 684.694 401.061 681.036 401.467C677.378 401.874 674.939 407.566 681.036 408.786C693.21 410.905 705.731 409.683 717.266 405.25C718.42 404.8 719.39 403.975 720.019 402.908C720.649 401.84 720.902 400.592 720.738 399.364L718.406 381.952L698.515 383.172Z" fill="#8B416F"/>
<path d="M675.752 193.309L662.497 195.077C664.316 210.562 664.263 226.211 662.338 241.683V297.366C662.338 297.366 662.082 302.272 672.262 309.405C682.936 316.827 693.224 324.793 703.083 333.269L739.967 365.229C739.967 365.229 754.6 347.34 752.567 336.769C752.567 336.769 728.179 329.044 724.927 316.44C723.062 309.228 713.607 303.182 705.867 299.382C701.001 297.018 697.089 293.06 694.783 288.166C692.476 283.272 691.913 277.736 693.186 272.477C693.638 270.649 694.337 268.892 695.263 267.253C701.767 255.869 711.116 230.255 711.116 230.255L693.231 196.155L675.752 193.309Z" fill="#4D4981"/>
<path opacity="0.05" d="M675.752 193.309L662.497 195.077C664.316 210.562 664.263 226.211 662.338 241.683V297.366C662.338 297.366 662.082 302.272 672.262 309.405C682.936 316.827 693.224 324.793 703.083 333.269L739.967 365.229C739.967 365.229 754.6 347.34 752.567 336.769C752.567 336.769 728.179 329.044 724.927 316.44C723.062 309.228 713.607 303.182 705.867 299.382C701.001 297.018 697.089 293.06 694.783 288.166C692.476 283.272 691.913 277.736 693.186 272.477C693.638 270.649 694.337 268.892 695.263 267.253C701.767 255.869 711.116 230.255 711.116 230.255L693.231 196.155L675.752 193.309Z" fill="black"/>
<path d="M695.263 384.418C695.263 384.418 719.245 388.484 720.058 390.923C720.871 393.363 720.058 387.67 720.058 387.67C720.058 387.67 733.878 345.793 730.662 308.803C727.445 271.814 734.727 247.41 734.727 247.41C734.727 247.41 743.263 219.763 738.385 203.907C733.507 188.05 682.291 194.962 682.291 194.962C682.291 194.962 700.176 236.839 699.769 256.762C699.769 256.762 701.802 316.935 705.46 323.847C705.425 323.811 699.734 382.765 695.263 384.418Z" fill="#4D4981"/>
<path d="M698.082 71.3453C698.082 71.3453 700.521 86.3709 724.909 79.8834L708.686 203.474C708.686 203.474 661.534 205.1 661.941 199.408L671.661 124.607L698.082 71.3453Z" fill="white"/>
<path opacity="0.1" d="M698.718 70.5321C695.542 73.6595 691.405 75.6244 686.974 76.1093C682.928 76.4195 678.993 77.5886 675.434 79.5387C671.254 81.8809 666.597 85.2838 665.184 89.4291C662.338 97.5606 644.453 110.978 636.324 108.132L639.169 132.526C639.169 132.526 662.338 131.306 666.403 122.362L659.502 209.413H665.599C665.599 209.413 668.851 185.832 671.29 180.953C673.728 176.074 678.606 149.24 679.013 142.735C679.419 136.23 685.516 98.8245 690.801 92.3547L698.753 73.0423L698.718 70.5321Z" fill="black"/>
<path opacity="0.1" d="M698.718 71.7519C695.085 74.594 690.742 76.3827 686.161 76.9225C682.116 77.2394 678.185 78.4145 674.63 80.3695C670.45 82.7117 665.793 86.1146 664.379 90.2599C661.534 98.3914 643.649 111.808 635.52 108.962L638.365 133.357C638.365 133.357 661.534 132.137 665.599 123.193L658.689 210.191H664.786C664.786 210.191 668.038 186.61 670.477 181.731C672.915 176.852 677.793 150.018 678.2 143.513C678.606 137.007 684.703 99.6023 689.988 93.1325L698.718 74.1825V71.7519Z" fill="black"/>
<path d="M698.718 70.9387C695.085 73.7809 690.742 75.5696 686.161 76.1093C682.115 76.4195 678.181 77.5886 674.621 79.5387C670.441 81.8809 665.784 85.2838 664.371 89.4291C661.525 97.5606 643.64 110.978 635.511 108.132L638.356 132.526C638.356 132.526 661.525 131.306 665.59 122.362L658.689 209.413H664.786C664.786 209.413 668.038 185.832 670.477 180.953C672.915 176.074 677.793 149.24 678.2 142.735C678.606 136.23 684.703 98.8245 689.988 92.3547L698.727 73.4489L698.718 70.9387Z" fill="#FD6F8D"/>
<path opacity="0.1" d="M719.448 55.2855C718.918 51.4319 719.979 49.0278 720.465 44.5113L697.295 61.994C697.295 61.994 697.852 64.3539 698.276 67.8098C699.445 67.9987 700.627 68.0933 701.811 68.0927C709.852 68.0927 715.64 61.8084 719.448 55.2855Z" fill="black"/>
<path d="M701.767 66.8818C713.889 66.8818 723.716 57.0521 723.716 44.9267C723.716 32.8012 713.889 22.9716 701.767 22.9716C689.644 22.9716 679.817 32.8012 679.817 44.9267C679.817 57.0521 689.644 66.8818 701.767 66.8818Z" fill="#FEC3BE"/>
<path opacity="0.1" d="M677.811 23.4047C677.67 19.7021 678.271 16.0088 679.578 12.542C679.215 13.0874 679.062 13.7459 679.146 14.3958C679.23 15.0457 679.547 15.643 680.038 16.0774C680.745 12.299 682.684 8.86148 685.552 6.30193C683.988 6.55825 683.184 8.49391 683.572 10.0318C684.1 11.534 685.041 12.8572 686.285 13.8501C686.153 11.5256 687.69 9.35126 689.634 8.0785C691.66 6.91477 693.872 6.11318 696.173 5.70975C695.384 5.98985 694.71 6.52327 694.256 7.22678C693.802 7.93029 693.594 8.76431 693.664 9.59873C693.67 9.88223 693.788 10.1518 693.99 10.35C694.211 10.4913 694.471 10.5594 694.733 10.5445C697.022 10.6327 699.315 10.5826 701.599 10.3942C704.406 10.0782 707.23 9.92764 710.055 9.94345C718.892 10.3147 727.772 16.3514 729.752 24.9691C730.162 27.06 730.378 29.1845 730.397 31.3152L730.83 42.1955C731.081 45.3698 730.951 48.5628 730.441 51.7059C729.829 54.6076 728.584 57.3383 726.796 59.7034C725.007 62.0684 722.718 64.0095 720.093 65.3881C716.903 60.7655 716.621 54.8259 715.516 49.3195C715.342 48.0487 714.869 46.8373 714.138 45.784C713.76 45.2632 713.229 44.8729 712.62 44.667C712.01 44.4611 711.352 44.45 710.736 44.635C709.543 45.1123 709.03 46.933 710.02 47.7462C709.136 48.7892 707.484 48.0114 706.485 47.0833C703.697 44.4373 701.777 41.007 700.98 37.2459C700.583 35.3545 700.185 33.0211 698.329 32.3758C697.691 32.2004 697.024 32.1553 696.367 32.2433C692.497 32.5084 686.444 34.1082 682.698 32.8797C679.26 31.7571 677.811 26.6661 677.811 23.4047Z" fill="black"/>
<path d="M678.217 22.9981C678.077 19.2955 678.677 15.6022 679.985 12.1354C679.622 12.6809 679.468 13.3393 679.552 13.9892C679.637 14.6391 679.954 15.2364 680.444 15.6709C681.152 11.8924 683.091 8.45489 685.958 5.89535C684.394 6.15167 683.59 8.08732 683.979 9.62524C684.507 11.1274 685.447 12.4506 686.692 13.4435C686.559 11.119 688.097 8.94466 690.041 7.6719C692.066 6.50817 694.279 5.70659 696.58 5.30316C695.791 5.58327 695.117 6.11669 694.663 6.82019C694.209 7.5237 694 8.35773 694.07 9.19215C694.077 9.47564 694.194 9.74524 694.397 9.94343C694.618 10.0847 694.878 10.1528 695.139 10.1379C697.429 10.2261 699.722 10.176 702.005 9.98762C704.813 9.67155 707.636 9.52104 710.462 9.53685C719.298 9.90807 728.179 15.9448 730.158 24.5625C730.568 26.6534 730.784 28.7779 730.803 30.9086L731.236 41.789C731.488 44.9632 731.357 48.1562 730.847 51.2993C730.235 54.201 728.991 56.9317 727.202 59.2968C725.413 61.6618 723.125 63.6029 720.5 64.9815C717.31 60.3589 717.027 54.4193 715.923 48.9129C715.748 47.6421 715.276 46.4307 714.544 45.3774C714.166 44.8566 713.636 44.4663 713.026 44.2604C712.417 44.0546 711.758 44.0434 711.142 44.2284C709.949 44.7057 709.437 46.5265 710.426 47.3396C709.543 48.3826 707.89 47.6048 706.892 46.6767C704.103 44.0308 702.184 40.6004 701.387 36.8393C700.989 34.9479 700.591 32.6145 698.736 31.9693C698.097 31.7938 697.43 31.7487 696.774 31.8367C692.904 32.1018 686.851 33.7016 683.104 32.4731C679.667 31.3417 678.217 26.2595 678.217 22.9981Z" fill="#784F69"/>
<path opacity="0.1" d="M634.459 108.14C634.459 108.14 631.207 123.166 637.304 132.535L640.76 132.252L638.877 108.388L634.459 108.14Z" fill="black"/>
<path d="M635.343 108.14C635.343 108.14 632.091 123.166 638.188 132.535L641.643 132.252L639.761 108.388L635.343 108.14Z" fill="#FD6F8D"/>
<path opacity="0.1" d="M722.7 67.1116L748.918 89.6766C748.918 89.6766 764.364 105.533 757.861 131.147C757.861 131.147 755.015 168.552 751.763 170.179C751.763 170.179 740.382 192.947 739.569 214.495C739.569 214.495 724.326 183.799 717.416 202.501C710.506 221.204 694.441 223.847 694.441 223.847L703.384 113.223C703.384 113.223 725.952 73.988 722.7 67.1116Z" fill="black"/>
<path d="M723.513 67.1116L749.731 89.6766C749.731 89.6766 765.177 105.533 758.673 131.147C758.673 131.147 755.828 168.552 752.576 170.179C752.576 170.179 741.195 192.947 740.382 214.495C740.382 214.495 724.326 182.173 717.407 200.875C710.488 219.578 695.254 223.856 695.254 223.856L704.197 113.276C704.197 113.276 726.765 73.988 723.513 67.1116Z" fill="#FD6F8D"/>
<path d="M735.504 162.418C735.504 162.418 742.008 157.946 752.576 170.143L726.562 217.306L717.822 204.11C717.822 204.11 736.317 167.704 735.504 162.418Z" fill="#FEC3BE"/>
<path opacity="0.1" d="M729.204 165.061C729.204 165.061 743.59 181.218 749.201 178.628L754.397 166.528L734.894 158.149L729.204 165.061Z" fill="black"/>
<path d="M729.204 164.248C729.204 164.248 743.59 180.405 749.201 177.815L754.397 165.715L734.894 157.336L729.204 164.248Z" fill="#FD6F8D"/>
<path opacity="0.1" d="M718.706 201.025C718.706 201.025 725.554 215.061 729.204 215.874L723.902 221.973L716.179 207.336L718.706 201.025Z" fill="black"/>
<path d="M718.3 201.459C718.3 201.459 725.148 215.494 728.797 216.307L723.495 222.406L715.755 207.743L718.3 201.459Z" fill="#4D4981"/>
<path opacity="0.1" d="M731.236 114.646C731.236 114.646 732.049 143.919 728.797 154.897L731.236 114.646Z" fill="black"/>
<path opacity="0.1" d="M665.387 120.338C665.387 120.338 670.265 118.711 670.265 114.646L665.387 120.338Z" fill="black"/>
<path d="M73.0688 125.234C73.0688 125.234 49.8996 173.175 65.116 229.91C80.3324 286.645 75.4989 354.534 60.3266 371.328" stroke="#535461" stroke-width="2" stroke-miterlimit="10"/>
<path d="M73.0688 131.633C76.5973 131.633 79.4576 128.772 79.4576 125.243C79.4576 121.714 76.5973 118.853 73.0688 118.853C69.5404 118.853 66.6801 121.714 66.6801 125.243C66.6801 128.772 69.5404 131.633 73.0688 131.633Z" fill="#0074E4"/>
<path d="M63.4371 156.072C63.4371 156.072 87.4546 160.403 93.8434 151.653" stroke="#535461" stroke-width="2" stroke-miterlimit="10"/>
<path d="M61.1573 169.993C61.1573 169.993 46.7096 154.004 47.5049 144.414" stroke="#535461" stroke-width="2" stroke-miterlimit="10"/>
<path d="M59.929 199.284C59.929 199.284 73.0688 202.749 85.0599 177.188" stroke="#535461" stroke-width="2" stroke-miterlimit="10"/>
<path d="M63.4371 220.585C63.4371 220.585 30.7421 199.541 34.7274 185.964" stroke="#535461" stroke-width="2" stroke-miterlimit="10"/>
<path d="M68.5446 244.671C68.5446 244.671 91.4487 224.342 89.054 204.34" stroke="#535461" stroke-width="2" stroke-miterlimit="10"/>
<path d="M71.0364 258.83C71.0364 258.83 41.8761 250.681 42.7597 237.9" stroke="#535461" stroke-width="2" stroke-miterlimit="10"/>
<path d="M73.0688 275.703C73.0688 275.703 91.4399 258.68 93.8346 248.303" stroke="#535461" stroke-width="2" stroke-miterlimit="10"/>
<path d="M74.3501 304.649C74.3501 304.649 55.5019 282.641 54.6978 271.46" stroke="#535461" stroke-width="2" stroke-miterlimit="10"/>
<path d="M74.3501 322.866C74.3501 322.866 95.4428 299.426 97.0334 288.245" stroke="#535461" stroke-width="2" stroke-miterlimit="10"/>
<path d="M47.5049 152.404C51.0333 152.404 53.8937 149.543 53.8937 146.014C53.8937 142.485 51.0333 139.624 47.5049 139.624C43.9765 139.624 41.1161 142.485 41.1161 146.014C41.1161 149.543 43.9765 152.404 47.5049 152.404Z" fill="#0074E4"/>
<path d="M40.3209 244.29C43.8493 244.29 46.7096 241.429 46.7096 237.9C46.7096 234.371 43.8493 231.51 40.3209 231.51C36.7924 231.51 33.9321 234.371 33.9321 237.9C33.9321 241.429 36.7924 244.29 40.3209 244.29Z" fill="#0074E4"/>
<path d="M34.7274 192.355C38.2558 192.355 41.1161 189.494 41.1161 185.964C41.1161 182.435 38.2558 179.574 34.7274 179.574C31.1989 179.574 28.3386 182.435 28.3386 185.964C28.3386 189.494 31.1989 192.355 34.7274 192.355Z" fill="#0074E4"/>
<path d="M93.8434 157.999C97.3718 157.999 100.232 155.138 100.232 151.609C100.232 148.079 97.3718 145.218 93.8434 145.218C90.315 145.218 87.4546 148.079 87.4546 151.609C87.4546 155.138 90.315 157.999 93.8434 157.999Z" fill="#0074E4"/>
<path d="M93.8434 256.276C97.3718 256.276 100.232 253.415 100.232 249.885C100.232 246.356 97.3718 243.495 93.8434 243.495C90.315 243.495 87.4546 246.356 87.4546 249.885C87.4546 253.415 90.315 256.276 93.8434 256.276Z" fill="#0074E4"/>
<path d="M83.4605 183.569C86.989 183.569 89.8493 180.708 89.8493 177.179C89.8493 173.65 86.989 170.789 83.4605 170.789C79.9321 170.789 77.0718 173.65 77.0718 177.179C77.0718 180.708 79.9321 183.569 83.4605 183.569Z" fill="#0074E4"/>
<path d="M96.2381 298.63C99.7665 298.63 102.627 295.769 102.627 292.24C102.627 288.711 99.7665 285.85 96.2381 285.85C92.7097 285.85 89.8493 288.711 89.8493 292.24C89.8493 295.769 92.7097 298.63 96.2381 298.63Z" fill="#0074E4"/>
<path d="M53.0984 281.846C56.6268 281.846 59.4872 278.985 59.4872 275.455C59.4872 271.926 56.6268 269.065 53.0984 269.065C49.57 269.065 46.7096 271.926 46.7096 275.455C46.7096 278.985 49.57 281.846 53.0984 281.846Z" fill="#0074E4"/>
<path d="M89.8493 210.73C93.3777 210.73 96.2381 207.869 96.2381 204.34C96.2381 200.811 93.3777 197.95 89.8493 197.95C86.3209 197.95 83.4605 200.811 83.4605 204.34C83.4605 207.869 86.3209 210.73 89.8493 210.73Z" fill="#0074E4"/>
</g>
<defs>
<linearGradient id="paint0_linear" x1="394.204" y1="372.371" x2="394.204" y2="49.0985" gradientUnits="userSpaceOnUse">
<stop stop-color="#808080" stop-opacity="0.25"/>
<stop offset="0.54" stop-color="#808080" stop-opacity="0.12"/>
<stop offset="1" stop-color="#808080" stop-opacity="0.1"/>
</linearGradient>
<linearGradient id="paint1_linear" x1="180245" y1="266687" x2="180245" y2="72524.1" gradientUnits="userSpaceOnUse">
<stop stop-color="#808080" stop-opacity="0.25"/>
<stop offset="0.54" stop-color="#808080" stop-opacity="0.12"/>
<stop offset="1" stop-color="#808080" stop-opacity="0.1"/>
</linearGradient>
<clipPath id="clip0">
<rect width="843" height="486" fill="white"/>
</clipPath>
</defs>
</svg>
