<svg width="341" height="197" viewBox="0 0 341 197" fill="none" xmlns="http://www.w3.org/2000/svg">
<g clip-path="url(#clip0)">
<path opacity="0.5" d="M84.6209 129.018C64.0037 121.877 40.4304 115.833 21.1678 126.094C18.7264 127.395 16.3209 129.032 15.0055 131.468C11.5311 137.878 17.0536 146.19 14.3621 152.965C11.6705 159.74 1.54062 163.15 2.36989 170.387C2.58793 172.279 3.61021 173.992 4.81479 175.468C12.3604 184.708 26.1934 185.643 37.8854 183.35C49.5773 181.057 61.0119 176.303 72.9147 176.901C84.3529 177.492 94.876 182.992 105.356 187.62C123.025 195.445 143.66 201.059 161.314 193.195C169.403 189.591 176.09 183.454 183.833 179.169C194.266 173.447 206.259 171.242 218.04 172.877C225.904 173.988 233.41 176.783 241.106 178.71C258.585 183.085 276.828 182.941 294.84 182.769C298.193 182.737 301.599 182.698 304.813 181.738C309.57 180.304 313.495 177.005 317.273 173.777C322.238 169.538 327.467 164.881 329.069 158.543C330.96 151.019 327.046 143.023 321.241 137.91C315.436 132.797 308.015 130.003 300.773 127.309C298.986 126.65 297.078 125.98 295.247 126.478C294.046 126.807 293.035 127.61 292.138 128.473C286.998 133.432 282.655 141.819 275.645 140.472C273.143 139.992 271.095 138.247 269.115 136.635C258.542 128.036 244.319 121.397 231.558 126.148C222.226 129.623 215.638 138.548 206.18 141.697C199.453 143.94 192.143 142.969 185.066 143.406C174.771 144.037 164.752 147.684 154.444 147.462C128.157 146.896 106.257 121.702 80.0779 124.102C78.0261 124.288 75.7886 124.761 74.5304 126.388" fill="#0074E4"/>
<path d="M51.4717 105.053C51.4717 105.053 29.6284 118.27 69.9086 138.627C69.9086 138.627 78.7839 122.11 68.9721 108.643C67.068 106.019 64.2699 104.186 61.1079 103.491C57.9458 102.797 54.6393 103.288 51.8149 104.874L51.4717 105.053Z" fill="#0074E4"/>
<path d="M51.7327 104.777C51.7327 104.777 70.434 119.108 69.9122 138.616" stroke="#535461" stroke-miterlimit="10"/>
<path d="M327.828 94.0431C332.253 110.262 313.377 156.469 313.377 156.469C313.377 156.469 273.658 126.327 269.229 110.108C268.071 106.219 267.699 102.138 268.137 98.1031C268.575 94.0685 269.813 90.1622 271.778 86.614C273.743 83.0657 276.396 79.9469 279.581 77.4409C282.766 74.9349 286.418 73.0923 290.324 72.0213C294.229 70.9503 298.309 70.6726 302.323 71.2044C306.337 71.7362 310.205 73.0669 313.698 75.1182C317.192 77.1695 320.241 79.9 322.667 83.1493C325.093 86.3987 326.847 90.1013 327.825 94.0395L327.828 94.0431Z" fill="#0074E4"/>
<path opacity="0.1" d="M327.828 94.0431C332.253 110.262 313.377 156.469 313.377 156.469C313.377 156.469 273.658 126.327 269.229 110.108C268.071 106.219 267.699 102.138 268.137 98.1031C268.575 94.0685 269.813 90.1622 271.778 86.614C273.743 83.0657 276.396 79.9469 279.581 77.4409C282.766 74.9349 286.418 73.0923 290.324 72.0213C294.229 70.9503 298.309 70.6726 302.323 71.2044C306.337 71.7362 310.205 73.0669 313.698 75.1182C317.192 77.1695 320.241 79.9 322.667 83.1493C325.093 86.3987 326.847 90.1013 327.825 94.0395L327.828 94.0431Z" fill="black"/>
<path d="M290.676 72.8011C290.676 72.8011 315.4 110.212 313.552 156.558" stroke="#535461" stroke-miterlimit="10"/>
<path d="M334.137 123.687C334.137 123.687 311.718 111.462 314.556 156.587C314.556 156.587 333.258 155.917 339.895 140.626C341.193 137.652 341.357 134.304 340.357 131.217C339.356 128.13 337.26 125.518 334.466 123.877L334.137 123.687Z" fill="#0074E4"/>
<path d="M334.505 123.765C334.505 123.765 331.61 147.189 314.556 156.587" stroke="#535461" stroke-miterlimit="10"/>
<path d="M5.91917 118.656C5.91917 118.656 -15.9349 131.87 24.3489 152.216C24.3489 152.216 33.2242 135.699 23.4124 122.232C21.5083 119.608 18.7102 117.775 15.5482 117.08C12.3861 116.386 9.07963 116.878 6.25517 118.463L5.91917 118.656Z" fill="#0074E4"/>
<path d="M6.16943 118.381C6.16943 118.381 24.8708 132.711 24.349 152.219" stroke="#535461" stroke-miterlimit="10"/>
<path d="M278.601 135.857H255.636C256.164 134.792 256.438 133.618 256.436 132.428V27.6121C256.436 25.5682 255.626 23.608 254.184 22.1628C252.742 20.7176 250.787 19.9056 248.748 19.9056H70.9808C68.9417 19.9056 66.9861 20.7176 65.5442 22.1628C64.1023 23.608 63.2922 25.5682 63.2922 27.6121V132.432C63.2904 133.622 63.5645 134.795 64.0929 135.861H40.3159C40.0479 135.861 39.7825 135.914 39.535 136.017C39.2876 136.12 39.0629 136.271 38.8739 136.462C38.6849 136.652 38.5353 136.878 38.4337 137.127C38.3322 137.375 38.2806 137.641 38.282 137.91V139.555C38.282 142.578 39.4803 145.478 41.6133 147.616C43.7463 149.754 46.6393 150.955 49.6558 150.955H269.261C272.278 150.955 275.171 149.754 277.304 147.616C279.437 145.478 280.635 142.578 280.635 139.555V137.91C280.637 137.641 280.586 137.375 280.484 137.126C280.383 136.877 280.233 136.65 280.044 136.459C279.855 136.268 279.631 136.117 279.383 136.014C279.135 135.91 278.87 135.857 278.601 135.857ZM137.093 142.378L135.113 140.138H184.004L181.824 142.381L137.093 142.378Z" fill="url(#paint0_linear)"/>
<path d="M245.927 21.3889H73.7832C69.1915 21.3889 65.4691 25.1199 65.4691 29.7223V130.565C65.4691 135.168 69.1915 138.899 73.7832 138.899H245.927C250.519 138.899 254.242 135.168 254.242 130.565V29.7223C254.242 25.1199 250.519 21.3889 245.927 21.3889Z" fill="#535461"/>
<path d="M249.87 38.5179H69.444V134.517H249.87V38.5179Z" fill="white"/>
<path d="M159.659 31.7466C160.537 31.7466 161.249 31.0328 161.249 30.1523C161.249 29.2718 160.537 28.558 159.659 28.558C158.78 28.558 158.068 29.2718 158.068 30.1523C158.068 31.0328 158.78 31.7466 159.659 31.7466Z" fill="white"/>
<path d="M187.514 134.714L181.316 141.088H137.615L132.014 134.714H43.0146C42.4875 134.714 41.982 134.924 41.6093 135.298C41.2366 135.671 41.0272 136.178 41.0272 136.706V138.311C41.0272 141.266 42.1984 144.101 44.2832 146.19C46.3679 148.28 49.1954 149.454 52.1437 149.454H266.774C268.233 149.454 269.679 149.165 271.028 148.605C272.376 148.045 273.602 147.225 274.634 146.19C275.666 145.155 276.485 143.927 277.044 142.575C277.602 141.223 277.89 139.775 277.89 138.311V136.706C277.89 136.178 277.681 135.671 277.308 135.298C276.935 134.924 276.43 134.714 275.903 134.714H187.514Z" fill="#535461"/>
<path d="M92.4954 44.4939V126.152H227.215" stroke="#535461" stroke-width="2" stroke-miterlimit="10"/>
<path opacity="0.5" d="M118.521 113.498H104.363V122.821H118.521V113.498Z" fill="#0074E4"/>
<path opacity="0.7" d="M141.982 107.418H128.229V122.821H141.982V107.418Z" fill="#0074E4"/>
<path opacity="0.5" d="M165.848 98.5H152.095V122.821H165.848V98.5Z" fill="#0074E4"/>
<path opacity="0.8" d="M189.859 75.9611H175.951V122.966H189.859V75.9611Z" fill="#0074E4"/>
<path d="M213.704 59.2297H199.796V122.963H213.704V59.2297Z" fill="#0074E4"/>
<path d="M111.037 103.972L135.308 96.2706L158.972 86.7448L182.707 62.0206L206.552 52.0606" stroke="#535461" stroke-width="2" stroke-miterlimit="10"/>
<path d="M111.594 106.912C113.129 106.912 114.374 105.664 114.374 104.125C114.374 102.585 113.129 101.337 111.594 101.337C110.058 101.337 108.813 102.585 108.813 104.125C108.813 105.664 110.058 106.912 111.594 106.912Z" fill="#0074E4"/>
<path d="M158.921 89.5038C160.457 89.5038 161.702 88.2558 161.702 86.7164C161.702 85.177 160.457 83.929 158.921 83.929C157.385 83.929 156.14 85.177 156.14 86.7164C156.14 88.2558 157.385 89.5038 158.921 89.5038Z" fill="#0074E4"/>
<path d="M183.103 64.808C184.639 64.808 185.884 63.5601 185.884 62.0206C185.884 60.4812 184.639 59.2333 183.103 59.2333C181.568 59.2333 180.323 60.4812 180.323 62.0206C180.323 63.5601 181.568 64.808 183.103 64.808Z" fill="#0074E4"/>
<path d="M135.055 99.2105C136.591 99.2105 137.836 97.9626 137.836 96.4232C137.836 94.8838 136.591 93.6358 135.055 93.6358C133.519 93.6358 132.274 94.8838 132.274 96.4232C132.274 97.9626 133.519 99.2105 135.055 99.2105Z" fill="#0074E4"/>
<path d="M206.552 54.848C208.087 54.848 209.333 53.6001 209.333 52.0606C209.333 50.5212 208.087 49.2733 206.552 49.2733C205.016 49.2733 203.771 50.5212 203.771 52.0606C203.771 53.6001 205.016 54.848 206.552 54.848Z" fill="#0074E4"/>
<path d="M310.013 138.204C308.548 137.72 306.375 137.161 304.652 137.358C303.011 136.76 299.154 135.209 296.52 132.873C296.596 130.576 296.537 128.277 296.345 125.987C294.997 110.628 298.028 100.503 298.028 100.503C298.028 100.503 300.409 92.7784 300.148 86.3689C300.302 86.6591 300.387 86.831 300.387 86.831C300.595 81.3029 302.475 75.5813 303.883 72.0164C303.937 72.0011 303.989 71.9819 304.04 71.9591L305.613 68.2188C305.738 68.0006 305.838 67.7685 305.91 67.5273L306.164 66.9361L306.089 66.9039C306.114 66.8072 306.139 66.7033 306.164 66.5994C307.168 62.3395 307.951 52.2362 307.951 52.2362C310.646 41.6027 304.248 35.0391 304.248 35.0391L293.389 25.6738C293.443 25.7957 293.479 25.9249 293.496 26.0572L293.407 25.9784C293.253 25.5377 293.085 25.011 292.92 24.4091C293.303 24.1335 293.662 23.8254 293.993 23.4884C295.227 22.3196 296.077 20.8009 296.427 19.1353C296.637 17.8328 296.691 16.5097 296.588 15.1943L296.409 10.6765C296.401 9.79234 296.311 8.91082 296.141 8.04322C295.322 4.46049 291.659 1.95257 287.981 1.78777C286.81 1.78094 285.641 1.84315 284.478 1.97407C283.527 2.05239 282.572 2.07272 281.618 2.03498C281.509 2.04074 281.402 2.0119 281.311 1.95258C281.228 1.86982 281.18 1.75804 281.178 1.64087C281.16 1.43119 281.184 1.21987 281.249 1.01972C281.314 0.819568 281.419 0.634753 281.557 0.476487C281.701 0.350005 281.869 0.253761 282.051 0.193454L281.79 0.25436C281.918 0.152679 282.063 0.0739092 282.219 0.0214844C281.265 0.189507 280.348 0.52292 279.509 1.00674C279.278 1.15899 279.066 1.33818 278.876 1.54056C278.377 1.98014 278.052 2.58564 277.961 3.24594C277.514 2.86696 277.18 2.37085 276.996 1.81285C276.939 1.58468 276.939 1.34597 276.996 1.1178C276.932 1.19662 276.87 1.27783 276.81 1.36142C276.81 1.33634 276.81 1.31127 276.81 1.28619C276.12 2.13724 275.631 3.13444 275.381 4.20253C275.284 4.08687 275.212 3.95319 275.168 3.80926C275.124 3.66533 275.109 3.51404 275.123 3.36417C275.07 3.53256 275.02 3.70095 274.973 3.86933C274.957 3.75766 274.957 3.64423 274.973 3.53256C274.552 4.82419 274.362 6.18018 274.412 7.53805C274.412 8.89232 275.013 11.0026 276.46 11.4791C276.535 11.5041 276.61 11.522 276.689 11.54C275.875 12.8076 275.387 14.2579 275.27 15.7609C275.153 17.2639 275.409 18.7725 276.017 20.1517C276.624 21.5308 277.564 22.7372 278.751 23.6628C279.938 24.5885 281.336 25.2044 282.819 25.4553C282.843 25.6201 282.866 25.7933 282.887 25.9748H282.944C282.984 26.3331 283.016 26.7272 283.037 27.1284C282.672 27.4872 282.272 27.8088 281.843 28.0886C280.628 28.8087 279.272 29.2583 277.868 29.407C276.192 29.5389 274.563 30.0274 273.089 30.8401C271.356 31.811 269.444 33.2262 268.843 34.9459C267.842 37.8121 262.33 42.2726 258.635 42.8279L257.319 42.7527L257.223 42.7241V42.7491L256.901 42.7312H256.883H256.797V42.7491L256.465 42.7312C256.465 42.7312 256.433 42.8853 256.386 43.1576C254.528 42.5163 250.578 40.7392 245.438 36.0638C239.719 30.858 231.98 31.8827 228.995 32.5383C228.894 32.5608 228.802 32.6138 228.731 32.6902C228.66 32.7666 228.614 32.8628 228.6 32.9659C228.585 33.0691 228.602 33.1743 228.648 33.2676C228.695 33.3608 228.768 33.4376 228.86 33.4878C230.064 34.1506 231.93 35.1143 232.791 35.2218C232.791 35.2218 231.004 37.0956 232.906 38.088C233.134 38.1986 233.388 38.244 233.64 38.2194C233.892 38.1947 234.133 38.1009 234.336 37.9483C235.258 37.2711 237.821 38.8045 241.534 39.6035C241.534 39.6035 252.015 50.4735 257.219 52.143C257.339 52.3804 257.471 52.6112 257.616 52.8345L257.937 52.8094V52.8345H258.073L258.113 53.1928C258.113 53.1928 266.205 52.7664 268.836 49.8214C269.022 49.6543 269.193 49.4708 269.347 49.2733L266.534 84.7423H266.559L266.534 85.0791H268.604C268.781 89.4414 268.593 93.8109 268.042 98.1417V121.265C268.042 121.265 267.935 123.3 272.153 126.28C276.575 129.366 280.837 132.678 284.921 136.201L285.432 136.645C284.656 143.721 283.034 156.909 281.679 157.4L282.515 157.547C281.085 159.363 277.025 164.354 275.788 164.487C274.273 164.655 273.261 167.02 275.788 167.525C280.834 168.4 286.022 167.888 290.801 166.042C291.277 165.853 291.677 165.51 291.936 165.067C292.195 164.624 292.299 164.107 292.231 163.598L291.741 159.872C291.834 159.924 291.908 160.003 291.955 160.098C292.291 161.112 291.955 158.747 291.955 158.747C293.34 154.286 294.428 149.738 295.212 145.133L300.216 149.468C300.216 149.468 300.316 149.343 300.491 149.11C301.717 151.897 303.905 157.601 303.415 161.778C302.743 167.511 309.134 162.452 308.466 159.077C307.922 156.347 310.353 144.775 311.3 140.447C311.402 139.979 311.327 139.491 311.089 139.076C310.851 138.661 310.468 138.35 310.013 138.204Z" fill="url(#paint1_linear)"/>
<path d="M257.716 44.5763C257.716 44.5763 252.948 43.7523 245.877 37.3249C240.283 32.241 232.738 33.2406 229.828 33.8819C229.729 33.9034 229.639 33.9547 229.57 34.0291C229.501 34.1035 229.456 34.1973 229.441 34.298C229.427 34.3986 229.444 34.5012 229.489 34.5921C229.535 34.683 229.607 34.7577 229.696 34.8062C230.872 35.4511 232.695 36.3934 233.549 36.5009C233.549 36.5009 231.787 38.3281 233.66 39.3061C233.884 39.4165 234.135 39.4623 234.383 39.4382C234.632 39.4142 234.869 39.3213 235.068 39.17C235.969 38.5108 238.471 40.0084 242.099 40.7858C242.099 40.7858 256.24 55.4535 259.528 52.9671L257.716 44.5763Z" fill="#FEC3BE"/>
<path d="M282.061 24.6349C282.061 24.6349 283.377 30.2382 282.061 34.1936L287.981 35.0176L293.242 32.3807V28.9198C293.242 28.9198 290.776 23.646 291.433 17.5482L282.061 24.6349Z" fill="#FEC3BE"/>
<path d="M298.822 146.089C298.822 146.089 303.111 154.494 302.439 160.098C301.767 165.701 308.029 160.757 307.372 157.461C306.839 154.795 309.213 143.488 310.138 139.282C310.239 138.828 310.167 138.352 309.937 137.948C309.707 137.543 309.336 137.239 308.894 137.093C306.918 136.441 303.608 135.642 301.946 136.864C299.49 138.673 298.822 146.089 298.822 146.089Z" fill="#8B416F"/>
<path d="M282.555 155.319C282.555 155.319 276.964 162.57 275.484 162.735C274.005 162.9 273.018 165.207 275.484 165.701C280.409 166.56 285.474 166.065 290.14 164.268C290.607 164.086 290.999 163.751 291.253 163.319C291.508 162.886 291.611 162.38 291.544 161.882L290.601 154.824L282.555 155.319Z" fill="#8B416F"/>
<path d="M273.347 78.3579L267.985 79.0744C268.721 85.3514 268.7 91.6944 267.921 97.9662V120.537C267.921 120.537 267.817 122.526 271.935 125.417C276.253 128.426 280.414 131.655 284.403 135.09L299.322 148.046C299.322 148.046 305.241 140.794 304.419 136.509C304.419 136.509 294.554 133.378 293.239 128.269C292.484 125.345 288.66 122.895 285.528 121.354C283.56 120.396 281.978 118.792 281.045 116.808C280.112 114.824 279.884 112.58 280.399 110.448C280.582 109.708 280.865 108.995 281.239 108.331C283.87 103.716 287.652 93.3337 287.652 93.3337L280.417 79.5115L273.347 78.3579Z" fill="#4D4981"/>
<path opacity="0.05" d="M273.347 78.3579L267.985 79.0744C268.721 85.3514 268.7 91.6944 267.921 97.9662V120.537C267.921 120.537 267.817 122.526 271.935 125.417C276.253 128.426 280.414 131.655 284.403 135.09L299.322 148.046C299.322 148.046 305.241 140.794 304.419 136.509C304.419 136.509 294.554 133.378 293.239 128.269C292.484 125.345 288.66 122.895 285.528 121.354C283.56 120.396 281.978 118.792 281.045 116.808C280.112 114.824 279.884 112.58 280.399 110.448C280.582 109.708 280.865 108.995 281.239 108.331C283.87 103.716 287.652 93.3337 287.652 93.3337L280.417 79.5115L273.347 78.3579Z" fill="black"/>
<path d="M281.239 155.824C281.239 155.824 290.94 157.472 291.269 158.461C291.598 159.449 291.269 157.142 291.269 157.142C291.269 157.142 296.859 140.167 295.558 125.173C294.257 110.18 297.203 100.288 297.203 100.288C297.203 100.288 300.655 89.081 298.682 82.6536C296.709 76.2262 275.992 79.0279 275.992 79.0279C275.992 79.0279 283.227 96.0028 283.062 104.078C283.062 104.078 283.884 128.47 285.364 131.271C285.35 131.257 283.048 155.154 281.239 155.824Z" fill="#4D4981"/>
<path d="M282.379 28.9198C282.379 28.9198 283.366 35.0104 293.231 32.3807L286.669 82.478C286.669 82.478 267.596 83.1373 267.76 80.83L271.692 50.5093L282.379 28.9198Z" fill="white"/>
<path opacity="0.1" d="M282.637 28.5902C281.352 29.8579 279.678 30.6543 277.886 30.8509C276.249 30.9766 274.658 31.4505 273.218 32.241C271.527 33.1904 269.644 34.5698 269.072 36.2501C267.921 39.5462 260.686 44.9848 257.398 43.8311L258.549 53.7194C258.549 53.7194 267.921 53.225 269.565 49.5993L266.773 84.8856H269.24C269.24 84.8856 270.555 75.3269 271.542 73.3492C272.528 71.3716 274.501 60.4944 274.666 57.8575C274.83 55.2206 277.297 40.0585 279.434 37.4359L282.651 29.6077L282.637 28.5902Z" fill="black"/>
<path opacity="0.1" d="M282.637 29.0846C281.167 30.2367 279.41 30.9617 277.558 31.1805C275.921 31.309 274.331 31.7853 272.893 32.5778C271.202 33.5272 269.318 34.9065 268.747 36.5868C267.596 39.8829 260.361 45.3215 257.073 44.1679L258.223 54.0562C258.223 54.0562 267.596 53.5618 269.24 49.9361L266.445 85.2009H268.911C268.911 85.2009 270.226 75.6422 271.213 73.6645C272.199 71.6868 274.173 60.8097 274.337 58.1728C274.501 55.5359 276.968 40.3738 279.105 37.7512L282.637 30.0698V29.0846Z" fill="black"/>
<path d="M282.637 28.755C281.167 29.9071 279.41 30.6321 277.557 30.8509C275.921 30.9766 274.329 31.4505 272.889 32.241C271.199 33.1904 269.315 34.5697 268.743 36.25C267.592 39.5462 260.357 44.9847 257.069 43.8311L258.22 53.7194C258.22 53.7194 267.592 53.225 269.236 49.5993L266.445 84.8856H268.911C268.911 84.8856 270.226 75.3269 271.213 73.3492C272.199 71.3715 274.172 60.4944 274.337 57.8575C274.501 55.2206 276.968 40.0585 279.105 37.4359L282.64 29.7725L282.637 28.755Z" fill="#FD6F8D"/>
<path opacity="0.1" d="M291.022 22.41C290.808 20.8479 291.237 19.8734 291.433 18.0426L282.061 25.1293C282.061 25.1293 282.286 26.0859 282.458 27.4867C282.931 27.5633 283.409 27.6016 283.888 27.6014C287.141 27.6014 289.482 25.054 291.022 22.41Z" fill="black"/>
<path d="M283.87 27.1105C288.774 27.1105 292.749 23.1261 292.749 18.211C292.749 13.296 288.774 9.31152 283.87 9.31152C278.966 9.31152 274.991 13.296 274.991 18.211C274.991 23.1261 278.966 27.1105 283.87 27.1105Z" fill="#FEC3BE"/>
<path opacity="0.1" d="M274.18 9.48708C274.123 7.98626 274.366 6.48918 274.895 5.0839C274.748 5.305 274.686 5.57192 274.72 5.83534C274.754 6.09876 274.882 6.34089 275.081 6.51699C275.367 4.98541 276.151 3.59201 277.311 2.5545C276.678 2.65839 276.353 3.44301 276.51 4.06641C276.724 4.67531 277.104 5.21166 277.608 5.61415C277.554 4.67189 278.176 3.79054 278.962 3.27463C279.782 2.80291 280.677 2.47798 281.607 2.31445C281.288 2.42799 281.016 2.64422 280.832 2.92938C280.648 3.21455 280.564 3.55262 280.592 3.89085C280.595 4.00577 280.642 4.11505 280.725 4.19539C280.814 4.25266 280.919 4.28025 281.025 4.27421C281.951 4.30998 282.878 4.28965 283.802 4.2133C284.938 4.08519 286.08 4.02418 287.223 4.03058C290.797 4.18106 294.39 6.62806 295.19 10.1212C295.356 10.9688 295.443 11.8299 295.451 12.6936L295.626 17.104C295.728 18.3906 295.675 19.6849 295.469 20.959C295.221 22.1352 294.718 23.2421 293.994 24.2008C293.271 25.1594 292.345 25.9463 291.283 26.5051C289.993 24.6313 289.879 22.2237 289.432 19.9916C289.361 19.4766 289.17 18.9855 288.874 18.5586C288.721 18.3475 288.507 18.1892 288.26 18.1058C288.014 18.0223 287.747 18.0178 287.498 18.0928C287.015 18.2863 286.808 19.0243 287.209 19.3539C286.851 19.7767 286.183 19.4614 285.779 19.0852C284.651 18.0127 283.874 16.6222 283.552 15.0976C283.391 14.3309 283.23 13.3851 282.48 13.1236C282.221 13.0524 281.951 13.0341 281.686 13.0698C280.12 13.1773 277.672 13.8258 276.156 13.3278C274.766 12.8728 274.18 10.8091 274.18 9.48708Z" fill="black"/>
<path d="M274.344 9.32228C274.287 7.82146 274.53 6.32438 275.059 4.91911C274.912 5.14021 274.85 5.40712 274.884 5.67054C274.918 5.93396 275.047 6.17609 275.245 6.3522C275.531 4.82062 276.315 3.42721 277.475 2.3897C276.843 2.4936 276.517 3.27822 276.675 3.90161C276.888 4.51051 277.269 5.04686 277.772 5.44935C277.718 4.50709 278.34 3.62574 279.127 3.10983C279.946 2.63811 280.841 2.31319 281.772 2.14966C281.453 2.2632 281.18 2.47942 280.996 2.76459C280.813 3.04975 280.728 3.38783 280.757 3.72606C280.759 3.84097 280.807 3.95025 280.889 4.03059C280.978 4.08787 281.083 4.11545 281.189 4.10941C282.115 4.14518 283.043 4.12484 283.966 4.0485C285.102 3.92038 286.244 3.85937 287.387 3.86578C290.962 4.01626 294.554 6.46326 295.355 9.95643C295.52 10.804 295.608 11.6651 295.616 12.5288L295.791 16.9392C295.892 18.2259 295.84 19.5201 295.633 20.7942C295.386 21.9704 294.882 23.0773 294.159 24.036C293.435 24.9946 292.51 25.7814 291.448 26.3403C290.157 24.4665 290.043 22.0589 289.596 19.8268C289.526 19.3118 289.335 18.8207 289.039 18.3938C288.886 18.1827 288.671 18.0244 288.425 17.941C288.178 17.8575 287.912 17.853 287.662 17.928C287.18 18.1215 286.973 18.8595 287.373 19.1891C287.015 19.6119 286.347 19.2966 285.943 18.9204C284.815 17.8479 284.039 16.4574 283.716 14.9328C283.555 14.1661 283.395 13.2203 282.644 12.9588C282.386 12.8876 282.116 12.8693 281.85 12.905C280.285 13.0125 277.836 13.661 276.321 13.163C274.93 12.7044 274.344 10.6443 274.344 9.32228Z" fill="#784F69"/>
<path opacity="0.1" d="M256.644 43.8347C256.644 43.8347 255.328 49.9253 257.795 53.723L259.192 53.6084L258.431 43.935L256.644 43.8347Z" fill="black"/>
<path d="M257.001 43.8347C257.001 43.8347 255.686 49.9253 258.152 53.723L259.55 53.6084L258.788 43.935L257.001 43.8347Z" fill="#FD6F8D"/>
<path opacity="0.1" d="M292.338 27.2037L302.943 36.3504C302.943 36.3504 309.191 42.7778 306.56 53.1606C306.56 53.1606 305.409 68.3227 304.094 68.9819C304.094 68.9819 299.49 78.211 299.161 86.9457C299.161 86.9457 292.995 74.5029 290.2 82.0839C287.405 89.665 280.907 90.7362 280.907 90.7362L284.524 45.8948C284.524 45.8948 293.653 29.991 292.338 27.2037Z" fill="black"/>
<path d="M292.667 27.2037L303.272 36.3504C303.272 36.3504 309.52 42.7778 306.889 53.1606C306.889 53.1606 305.738 68.3227 304.423 68.9819C304.423 68.9819 299.819 78.211 299.49 86.9457C299.49 86.9457 292.996 73.8436 290.197 81.4247C287.398 89.0058 281.236 90.7398 281.236 90.7398L284.853 45.9163C284.853 45.9163 293.982 29.991 292.667 27.2037Z" fill="#FD6F8D"/>
<path d="M297.517 65.8363C297.517 65.8363 300.148 64.0234 304.423 68.9676L293.9 88.085L290.365 82.736C290.365 82.736 297.846 67.9787 297.517 65.8363Z" fill="#FEC3BE"/>
<path opacity="0.1" d="M294.969 66.9075C294.969 66.9075 300.788 73.4567 303.057 72.407L305.159 67.5022L297.27 64.1058L294.969 66.9075Z" fill="black"/>
<path d="M294.969 66.5779C294.969 66.5779 300.788 73.1271 303.057 72.0774L305.159 67.1726L297.27 63.7762L294.969 66.5779Z" fill="#FD6F8D"/>
<path opacity="0.1" d="M290.722 81.4856C290.722 81.4856 293.492 87.175 294.969 87.5046L292.824 89.9767L289.7 84.0437L290.722 81.4856Z" fill="black"/>
<path d="M290.558 81.6612C290.558 81.6612 293.328 87.3505 294.804 87.6802L292.66 90.1522L289.528 84.2085L290.558 81.6612Z" fill="#4D4981"/>
<path opacity="0.1" d="M295.791 46.4716C295.791 46.4716 296.12 58.3376 294.804 62.7873L295.791 46.4716Z" fill="black"/>
<path opacity="0.1" d="M269.154 48.7789C269.154 48.7789 271.127 48.1196 271.127 46.4716L269.154 48.7789Z" fill="black"/>
<path d="M29.5569 50.7637C29.5569 50.7637 20.1847 70.1964 26.3399 93.194C32.495 116.192 30.5398 143.71 24.4025 150.518" stroke="#535461" stroke-width="2" stroke-miterlimit="10"/>
<path d="M29.557 53.3576C30.9842 53.3576 32.1413 52.1979 32.1413 50.7673C32.1413 49.3367 30.9842 48.177 29.557 48.177C28.1297 48.177 26.9727 49.3367 26.9727 50.7673C26.9727 52.1979 28.1297 53.3576 29.557 53.3576Z" fill="#0074E4"/>
<path d="M25.6608 63.2638C25.6608 63.2638 35.376 65.0194 37.9604 61.4725" stroke="#535461" stroke-width="2" stroke-miterlimit="10"/>
<path d="M24.7385 68.9067C24.7385 68.9067 18.8944 62.4255 19.2161 58.5382" stroke="#535461" stroke-width="2" stroke-miterlimit="10"/>
<path d="M24.2418 80.7798C24.2418 80.7798 29.557 82.1843 34.4075 71.823" stroke="#535461" stroke-width="2" stroke-miterlimit="10"/>
<path d="M25.6608 89.4142C25.6608 89.4142 12.4354 80.8837 14.0475 75.3806" stroke="#535461" stroke-width="2" stroke-miterlimit="10"/>
<path d="M27.7268 99.1772C27.7268 99.1772 36.9917 90.9369 36.023 82.8292" stroke="#535461" stroke-width="2" stroke-miterlimit="10"/>
<path d="M28.7348 104.917C28.7348 104.917 16.9392 101.613 17.2967 96.4328" stroke="#535461" stroke-width="2" stroke-miterlimit="10"/>
<path d="M29.5569 111.756C29.5569 111.756 36.9881 104.856 37.9568 100.65" stroke="#535461" stroke-width="2" stroke-miterlimit="10"/>
<path d="M30.0753 123.49C30.0753 123.49 22.451 114.569 22.1257 110.036" stroke="#535461" stroke-width="2" stroke-miterlimit="10"/>
<path d="M30.0752 130.874C30.0752 130.874 38.6073 121.372 39.2507 116.84" stroke="#535461" stroke-width="2" stroke-miterlimit="10"/>
<path d="M19.2161 61.777C20.6434 61.777 21.8005 60.6173 21.8005 59.1867C21.8005 57.7561 20.6434 56.5964 19.2161 56.5964C17.7889 56.5964 16.6318 57.7561 16.6318 59.1867C16.6318 60.6173 17.7889 61.777 19.2161 61.777Z" fill="#0074E4"/>
<path d="M16.31 99.0231C17.7373 99.0231 18.8943 97.8634 18.8943 96.4328C18.8943 95.0022 17.7373 93.8424 16.31 93.8424C14.8827 93.8424 13.7257 95.0022 13.7257 96.4328C13.7257 97.8634 14.8827 99.0231 16.31 99.0231Z" fill="#0074E4"/>
<path d="M14.0474 77.971C15.4747 77.971 16.6318 76.8112 16.6318 75.3807C16.6318 73.9501 15.4747 72.7903 14.0474 72.7903C12.6202 72.7903 11.4631 73.9501 11.4631 75.3807C11.4631 76.8112 12.6202 77.971 14.0474 77.971Z" fill="#0074E4"/>
<path d="M37.9604 64.0449C39.3877 64.0449 40.5447 62.8852 40.5447 61.4546C40.5447 60.024 39.3877 58.8643 37.9604 58.8643C36.5331 58.8643 35.3761 60.024 35.3761 61.4546C35.3761 62.8852 36.5331 64.0449 37.9604 64.0449Z" fill="#0074E4"/>
<path d="M37.9604 103.881C39.3877 103.881 40.5447 102.722 40.5447 101.291C40.5447 99.8604 39.3877 98.7006 37.9604 98.7006C36.5331 98.7006 35.3761 99.8604 35.3761 101.291C35.3761 102.722 36.5331 103.881 37.9604 103.881Z" fill="#0074E4"/>
<path d="M33.7605 74.4097C35.1877 74.4097 36.3448 73.25 36.3448 71.8194C36.3448 70.3888 35.1877 69.2291 33.7605 69.2291C32.3332 69.2291 31.1761 70.3888 31.1761 71.8194C31.1761 73.25 32.3332 74.4097 33.7605 74.4097Z" fill="#0074E4"/>
<path d="M38.929 121.05C40.3563 121.05 41.5133 119.89 41.5133 118.459C41.5133 117.029 40.3563 115.869 38.929 115.869C37.5018 115.869 36.3447 117.029 36.3447 118.459C36.3447 119.89 37.5018 121.05 38.929 121.05Z" fill="#0074E4"/>
<path d="M21.4787 114.246C22.906 114.246 24.063 113.086 24.063 111.656C24.063 110.225 22.906 109.065 21.4787 109.065C20.0514 109.065 18.8944 110.225 18.8944 111.656C18.8944 113.086 20.0514 114.246 21.4787 114.246Z" fill="#0074E4"/>
<path d="M36.3447 85.4195C37.772 85.4195 38.929 84.2597 38.929 82.8291C38.929 81.3986 37.772 80.2388 36.3447 80.2388C34.9174 80.2388 33.7604 81.3986 33.7604 82.8291C33.7604 84.2597 34.9174 85.4195 36.3447 85.4195Z" fill="#0074E4"/>
</g>
<defs>
<linearGradient id="paint0_linear" x1="159.459" y1="150.94" x2="159.459" y2="19.9021" gradientUnits="userSpaceOnUse">
<stop stop-color="#808080" stop-opacity="0.25"/>
<stop offset="0.54" stop-color="#808080" stop-opacity="0.12"/>
<stop offset="1" stop-color="#808080" stop-opacity="0.1"/>
</linearGradient>
<linearGradient id="paint1_linear" x1="72910.5" y1="108101" x2="72910.5" y2="29397.6" gradientUnits="userSpaceOnUse">
<stop stop-color="#808080" stop-opacity="0.25"/>
<stop offset="0.54" stop-color="#808080" stop-opacity="0.12"/>
<stop offset="1" stop-color="#808080" stop-opacity="0.1"/>
</linearGradient>
<clipPath id="clip0">
<rect width="341" height="197" fill="white"/>
</clipPath>
</defs>
</svg>
