<svg width="149" height="36" viewBox="0 0 149 36" fill="none" xmlns="http://www.w3.org/2000/svg">
<path d="M1.785 24.395C1.17833 23.6484 0.875 23.03 0.875 22.54C0.875 21.84 1.37667 21 2.38 20.02C2.96333 19.46 3.54667 19.18 4.13 19.18C4.85333 19.18 5.74 19.705 6.79 20.755L6.965 20.93C7.05833 21.0467 7.19833 21.1984 7.385 21.385C7.57167 21.5717 7.93333 21.8284 8.47 22.155C9.00667 22.4584 9.53167 22.61 10.045 22.61C12.215 22.61 13.3 21.7234 13.3 19.95C13.3 19.4134 12.9967 18.97 12.39 18.62C11.8067 18.2467 11.0717 17.9784 10.185 17.815C9.29833 17.6517 8.34167 17.395 7.315 17.045C6.28833 16.6717 5.33167 16.24 4.445 15.75C3.55833 15.26 2.81167 14.49 2.205 13.44C1.62167 12.3667 1.33 11.0834 1.33 9.59003C1.33 7.53669 2.08833 5.75169 3.605 4.23503C5.145 2.69503 7.23333 1.92503 9.87 1.92503C11.27 1.92503 12.5417 2.11169 13.685 2.48503C14.8517 2.83503 15.6567 3.19669 16.1 3.57003L16.8 4.09503L16.975 4.23503C17.6983 4.91169 18.06 5.47169 18.06 5.91503C18.06 6.40503 17.78 7.05836 17.22 7.87503C16.4267 9.04169 15.61 9.62503 14.77 9.62503C14.28 9.62503 13.6733 9.39169 12.95 8.92503C12.88 8.87836 12.74 8.76169 12.53 8.57503C12.3433 8.38836 12.1683 8.24836 12.005 8.15503C11.8417 8.03836 11.5617 7.93336 11.165 7.84003C10.7917 7.72336 10.3483 7.66503 9.835 7.66503C9.275 7.66503 8.73833 7.85169 8.225 8.22503C7.735 8.57503 7.49 9.04169 7.49 9.62503C7.49 10.325 7.78167 10.8734 8.365 11.27C8.97167 11.6667 9.71833 11.935 10.605 12.075C11.4917 12.215 12.46 12.4367 13.51 12.74C14.56 13.02 15.5283 13.37 16.415 13.79C17.3017 14.21 18.0367 14.945 18.62 15.995C19.2267 17.0217 19.53 18.305 19.53 19.845C19.53 21.3384 19.2267 22.6684 18.62 23.835C18.0133 24.9784 17.22 25.865 16.24 26.495C15.2833 27.125 14.2917 27.5917 13.265 27.895C12.2383 28.1984 11.2117 28.35 10.185 28.35C9.08833 28.35 8.05 28.2217 7.07 27.965C6.09 27.685 5.285 27.3584 4.655 26.985C4.04833 26.5884 3.51167 26.1917 3.045 25.795C2.60167 25.3984 2.28667 25.06 2.1 24.78L1.785 24.395Z" fill="#91B7DC"/>
<path d="M40.2853 16.415C40.2853 17.955 39.9236 19.075 39.2003 19.775C38.5003 20.4517 37.7186 20.79 36.8553 20.79H28.5603C28.5603 21.4434 28.9453 21.9917 29.7153 22.435C30.4853 22.8784 31.3136 23.1 32.2003 23.1C32.8303 23.1 33.4253 23.0534 33.9853 22.96C34.5453 22.8667 34.9536 22.7734 35.2103 22.68L35.5953 22.54C36.1553 22.2834 36.6219 22.155 36.9953 22.155C37.7419 22.155 38.3836 22.68 38.9203 23.73C39.2236 24.36 39.3753 24.8967 39.3753 25.34C39.3753 27.4167 36.8903 28.455 31.9203 28.455C30.1936 28.455 28.6536 28.1634 27.3003 27.58C25.9703 26.9734 24.9319 26.1917 24.1853 25.235C23.4386 24.255 22.8786 23.2284 22.5053 22.155C22.1553 21.0817 21.9803 19.985 21.9803 18.865C21.9803 15.925 22.9253 13.58 24.8153 11.83C26.7286 10.0567 29.1086 9.17003 31.9553 9.17003C33.0986 9.17003 34.1486 9.33336 35.1053 9.66003C36.0619 9.96336 36.8553 10.3717 37.4853 10.885C38.1153 11.375 38.6403 11.9467 39.0603 12.6C39.5036 13.2534 39.8186 13.9067 40.0053 14.56C40.1919 15.19 40.2853 15.8084 40.2853 16.415ZM32.9003 17.605C33.7869 17.605 34.2303 17.2317 34.2303 16.485C34.2303 15.9484 34.0203 15.5167 33.6003 15.19C33.2036 14.8634 32.6203 14.7 31.8503 14.7C31.1036 14.7 30.3569 15.015 29.6103 15.645C28.8636 16.2517 28.4903 16.905 28.4903 17.605H32.9003Z" fill="#91B7DC"/>
<path d="M49.7088 21.805C50.4788 21.805 51.0504 22.0034 51.4238 22.4C51.7971 22.7967 51.9838 23.625 51.9838 24.885C51.9838 26.0984 51.7854 26.915 51.3888 27.335C50.9921 27.7317 50.4204 27.93 49.6738 27.93C47.3171 27.93 45.6604 27.37 44.7038 26.25C43.7471 25.1067 43.2688 23.2167 43.2688 20.58V3.88503C43.2688 3.34836 43.2804 2.95169 43.3038 2.69503C43.3504 2.41503 43.4554 2.11169 43.6188 1.78503C43.8054 1.43503 44.1204 1.19003 44.5638 1.05003C45.0071 0.910027 45.6021 0.840027 46.3488 0.840027C47.0721 0.840027 47.6438 0.921693 48.0638 1.08503C48.5071 1.22503 48.8221 1.47003 49.0088 1.82003C49.1954 2.14669 49.3004 2.45003 49.3238 2.73003C49.3704 2.98669 49.3938 3.38336 49.3938 3.92003V20.72C49.3938 21.4434 49.4988 21.805 49.7088 21.805ZM60.2088 21.805C61.2121 21.805 61.9704 22.0034 62.4838 22.4C62.9971 22.7967 63.2537 23.625 63.2537 24.885C63.2537 26.0984 62.9738 26.915 62.4138 27.335C61.8771 27.7317 61.1188 27.93 60.1388 27.93C55.1921 27.93 52.7188 25.48 52.7188 20.58L52.6838 3.88503C52.6838 3.34836 52.6954 2.95169 52.7188 2.69503C52.7654 2.41503 52.8821 2.11169 53.0688 1.78503C53.2554 1.43503 53.5704 1.19003 54.0138 1.05003C54.4571 0.910027 55.0521 0.840027 55.7988 0.840027C56.5221 0.840027 57.0938 0.921693 57.5138 1.08503C57.9571 1.22503 58.2604 1.47003 58.4238 1.82003C58.6104 2.14669 58.7271 2.45003 58.7738 2.73003C58.8204 3.01003 58.8438 3.40669 58.8438 3.92003V20.72C58.8438 21.1634 58.9371 21.455 59.1238 21.595C59.3104 21.735 59.6721 21.805 60.2088 21.805Z" fill="#91B7DC"/>
<path d="M65.8779 33.005V12.565C65.8779 12.0284 65.8896 11.6317 65.9129 11.375C65.9596 11.1184 66.0646 10.8267 66.2279 10.5C66.4146 10.15 66.7179 9.90503 67.1379 9.76503C67.5579 9.62503 68.1296 9.55503 68.8529 9.55503C69.9029 9.55503 70.6379 9.71836 71.0579 10.045C71.5013 10.3484 71.7579 10.8034 71.8279 11.41C72.7146 10.1967 74.0446 9.59003 75.8179 9.59003C77.8479 9.59003 79.7146 10.4884 81.4179 12.285C83.1213 14.0817 83.9729 16.1467 83.9729 18.48C83.9729 20.9067 83.1213 23.0184 81.4179 24.815C79.7379 26.6117 77.8713 27.51 75.8179 27.51C74.0446 27.51 72.7263 26.9734 71.8629 25.9V32.97C71.8629 33.5067 71.8396 33.9034 71.7929 34.16C71.7696 34.4167 71.6646 34.7084 71.4779 35.035C71.3146 35.385 71.0229 35.63 70.6029 35.77C70.1829 35.91 69.6113 35.98 68.8879 35.98C68.1646 35.98 67.5813 35.91 67.1379 35.77C66.7179 35.63 66.4146 35.3967 66.2279 35.07C66.0646 34.7434 65.9596 34.4517 65.9129 34.195C65.8896 33.9384 65.8779 33.5417 65.8779 33.005ZM72.8079 16.52C72.2713 17.15 72.0029 17.8384 72.0029 18.585C72.0029 19.3317 72.2713 20.02 72.8079 20.65C73.3679 21.2567 74.0679 21.56 74.9079 21.56C75.7713 21.56 76.4946 21.2567 77.0779 20.65C77.6846 20.0434 77.9879 19.355 77.9879 18.585C77.9879 17.815 77.7079 17.1267 77.1479 16.52C76.5879 15.89 75.8646 15.575 74.9779 15.575C74.0679 15.575 73.3446 15.89 72.8079 16.52Z" fill="#91B7DC"/>
<path d="M86.949 3.95503C86.949 3.41836 86.9607 3.02169 86.984 2.76503C87.0307 2.48503 87.1357 2.17003 87.299 1.82003C87.4857 1.47003 87.8007 1.22503 88.244 1.08503C88.6874 0.945026 89.2824 0.875026 90.029 0.875026C90.7524 0.875026 91.324 0.956693 91.744 1.12003C92.1874 1.26003 92.5024 1.50503 92.689 1.85503C92.8757 2.18169 92.9807 2.48503 93.004 2.76503C93.0507 3.04503 93.074 3.45336 93.074 3.99003V20.195C93.074 21.035 93.144 21.5717 93.284 21.805C93.424 22.015 93.809 22.12 94.439 22.12C94.7657 22.12 95.0107 22.1434 95.174 22.19C95.3374 22.2134 95.5357 22.3067 95.769 22.47C96.0257 22.6334 96.2007 22.925 96.294 23.345C96.4107 23.7417 96.469 24.2784 96.469 24.955C96.469 25.6784 96.4107 26.2617 96.294 26.705C96.2007 27.1484 96.0257 27.4634 95.769 27.65C95.5357 27.8134 95.3257 27.9184 95.139 27.965C94.9757 27.9884 94.7307 28 94.404 28C93.1674 28 92.1757 27.9534 91.429 27.86C90.6824 27.7667 89.9824 27.5917 89.329 27.335C88.699 27.055 88.2207 26.635 87.894 26.075C87.5907 25.515 87.3574 24.8034 87.194 23.94C87.0307 23.0767 86.949 21.9684 86.949 20.615V3.95503Z" fill="#91B7DC"/>
<path d="M114.114 9.55503C114.838 9.55503 115.421 9.62503 115.864 9.76503C116.308 9.90503 116.611 10.15 116.774 10.5C116.961 10.85 117.066 11.165 117.089 11.445C117.136 11.7017 117.159 12.0984 117.159 12.635V24.885C117.159 25.4217 117.136 25.83 117.089 26.11C117.066 26.3667 116.961 26.67 116.774 27.02C116.611 27.3467 116.308 27.58 115.864 27.72C115.421 27.86 114.826 27.93 114.079 27.93C113.029 27.93 112.283 27.7784 111.839 27.475C111.419 27.1484 111.174 26.6817 111.104 26.075C110.241 27.3117 108.841 27.93 106.904 27.93C104.804 27.93 102.891 27.0084 101.164 25.165C99.4376 23.3217 98.5742 21.1634 98.5742 18.69C98.5742 16.2867 99.4376 14.175 101.164 12.355C102.914 10.5117 104.828 9.59003 106.904 9.59003C107.698 9.59003 108.421 9.73003 109.074 10.01C109.728 10.29 110.183 10.5584 110.439 10.815C110.696 11.0484 110.906 11.2817 111.069 11.515C111.139 10.8617 111.384 10.3717 111.804 10.045C112.248 9.71836 113.018 9.55503 114.114 9.55503ZM107.849 21.805C108.689 21.805 109.389 21.49 109.949 20.86C110.533 20.23 110.824 19.53 110.824 18.76C110.824 18.0134 110.544 17.3134 109.984 16.66C109.448 16.0067 108.713 15.68 107.779 15.68C106.869 15.68 106.123 16.0067 105.539 16.66C104.979 17.3134 104.699 18.025 104.699 18.795C104.699 19.565 105.003 20.265 105.609 20.895C106.216 21.5017 106.963 21.805 107.849 21.805Z" fill="#91B7DC"/>
<path d="M120.649 12.635C120.649 12.0984 120.66 11.7017 120.684 11.445C120.73 11.165 120.836 10.8617 120.999 10.535C121.186 10.185 121.5 9.94003 121.944 9.80003C122.387 9.66003 122.982 9.59003 123.729 9.59003C124.312 9.59003 124.802 9.64836 125.199 9.76503C125.619 9.88169 125.922 10.0217 126.109 10.185C126.319 10.3484 126.471 10.5934 126.564 10.92C126.681 11.2234 126.739 11.4917 126.739 11.725C126.762 11.935 126.774 12.2617 126.774 12.705V24.955C126.774 25.4917 126.751 25.9 126.704 26.18C126.681 26.4367 126.576 26.74 126.389 27.09C126.226 27.4167 125.922 27.65 125.479 27.79C125.035 27.93 124.44 28 123.694 28C122.97 28 122.387 27.93 121.944 27.79C121.5 27.65 121.186 27.405 120.999 27.055C120.836 26.705 120.73 26.4017 120.684 26.145C120.66 25.8884 120.649 25.48 120.649 24.92V12.635ZM123.694 7.07003C122.97 7.07003 122.387 7.00003 121.944 6.86003C121.5 6.72003 121.186 6.47503 120.999 6.12503C120.836 5.77503 120.73 5.47169 120.684 5.21503C120.66 4.93503 120.649 4.52669 120.649 3.99003C120.649 3.45336 120.66 3.05669 120.684 2.80003C120.73 2.52003 120.836 2.21669 120.999 1.89003C121.186 1.54003 121.5 1.29503 121.944 1.15503C122.387 1.01503 122.982 0.945026 123.729 0.945026C124.452 0.945026 125.035 1.01503 125.479 1.15503C125.922 1.29503 126.226 1.54003 126.389 1.89003C126.576 2.24003 126.681 2.55503 126.704 2.83503C126.751 3.09169 126.774 3.48836 126.774 4.02503C126.774 4.56169 126.751 4.97003 126.704 5.25003C126.681 5.50669 126.576 5.81003 126.389 6.16003C126.226 6.48669 125.922 6.72003 125.479 6.86003C125.035 7.00003 124.44 7.07003 123.694 7.07003Z" fill="#91B7DC"/>
<path d="M140.525 9.55503C142.858 9.55503 144.795 10.4534 146.335 12.25C147.898 14.0234 148.68 16.1934 148.68 18.76V24.92C148.68 25.4567 148.656 25.865 148.61 26.145C148.586 26.4017 148.481 26.705 148.295 27.055C148.131 27.3817 147.828 27.615 147.385 27.755C146.941 27.895 146.346 27.965 145.6 27.965C144.993 27.965 144.491 27.9067 144.095 27.79C143.698 27.6734 143.395 27.545 143.185 27.405C142.975 27.2417 142.811 26.9967 142.695 26.67C142.601 26.3434 142.543 26.075 142.52 25.865C142.52 25.655 142.52 25.3284 142.52 24.885V18.725C142.52 17.7684 142.24 17.0217 141.68 16.485C141.143 15.9484 140.408 15.68 139.475 15.68C138.565 15.68 137.818 15.96 137.235 16.52C136.675 17.08 136.395 17.815 136.395 18.725V24.92C136.395 25.4567 136.371 25.865 136.325 26.145C136.301 26.4017 136.196 26.705 136.01 27.055C135.846 27.3817 135.543 27.615 135.1 27.755C134.656 27.895 134.061 27.965 133.315 27.965C132.591 27.965 132.008 27.895 131.565 27.755C131.121 27.615 130.806 27.37 130.62 27.02C130.456 26.67 130.351 26.3667 130.305 26.11C130.281 25.83 130.27 25.4217 130.27 24.885V12.495C130.27 11.9817 130.281 11.5967 130.305 11.34C130.351 11.06 130.468 10.7567 130.655 10.43C130.841 10.1034 131.156 9.88169 131.6 9.76503C132.043 9.62503 132.626 9.55503 133.35 9.55503C134.05 9.55503 134.621 9.62503 135.065 9.76503C135.508 9.90503 135.811 10.115 135.975 10.395C136.138 10.6517 136.231 10.8734 136.255 11.06C136.301 11.2467 136.325 11.4917 136.325 11.795C136.371 11.725 136.43 11.6434 136.5 11.55C136.593 11.4567 136.768 11.2817 137.025 11.025C137.305 10.7684 137.596 10.5467 137.9 10.36C138.203 10.15 138.588 9.96336 139.055 9.80003C139.545 9.63669 140.035 9.55503 140.525 9.55503Z" fill="#91B7DC"/>
</svg>
