<svg width="349" height="176" viewBox="0 0 349 176" fill="none" xmlns="http://www.w3.org/2000/svg">
<g filter="url(#filter0_d)">
<path d="M10.5077 37.7738H8.21086C7.82805 37.7738 7.82806 37.7738 7.44525 37.3909L4.38281 35.4761C4.38281 35.4761 4 35.0931 4 34.7101V28.9658C4 28.1999 4.76561 27.8169 5.14842 27.8169H10.1249C10.8905 27.8169 11.6561 27.051 11.2733 26.2851L10.8905 23.2214C10.1249 20.1578 12.8045 17.4771 15.867 17.86L53.7647 22.8385C54.1475 22.8385 54.5303 22.8385 54.9131 22.4555L56.0616 20.9237C57.5928 18.6259 60.6552 17.4771 63.3349 17.4771L72.905 18.243C76.3503 18.6259 79.0299 22.0725 77.8815 25.5192L77.4987 27.051C77.4987 27.434 77.1159 27.8169 76.7331 27.8169L72.1394 30.4976C70.6082 31.6465 70.6082 33.9442 72.5222 34.7101C74.0534 35.4761 75.9674 35.0931 76.7331 33.5613C77.1159 33.1783 77.1159 33.1783 77.4987 33.1783L83.6236 32.0294C86.686 31.6465 89.3656 32.7954 90.8969 35.4761L92.0453 37.3909C92.4281 37.7738 92.8109 38.1568 93.1937 38.1568C94.7249 38.1568 95.8733 39.3056 95.8733 40.8375V44.667C95.8733 47.3478 93.5765 49.6455 90.5141 49.2625L78.6471 48.1137C77.8815 48.1137 77.1159 48.8796 77.1159 49.6455C77.8815 52.7092 76.3503 56.1558 73.6706 57.6876L63.7177 64.1979C63.3349 64.5809 62.9521 64.9638 62.9521 65.3468V69.1763C62.9521 69.9423 62.1864 70.3252 61.8036 70.3252H61.4208C61.038 70.3252 60.6552 69.9423 60.2724 69.9423L57.21 65.7297C56.8272 65.3468 56.4444 64.9638 55.6787 65.3468L47.6398 67.6445C47.257 67.6445 46.8742 68.0275 46.8742 68.4104L44.5774 73.3889C44.1946 74.1548 44.5774 74.9207 45.343 75.3037L48.7882 76.4526C49.1711 76.4526 49.5539 77.2185 49.5539 77.6014V80.6651C49.5539 81.431 49.9367 81.8139 50.7023 81.8139L52.6163 82.1969C54.9131 82.5799 56.4444 84.4947 56.8272 86.7924C56.8272 87.5583 57.5928 87.9413 57.9756 87.9413H75.9674C76.3502 87.9413 76.7331 87.9413 77.1159 88.3242L81.3267 92.9197C81.7095 93.3027 82.0923 93.3027 82.4751 93.3027H86.686C87.4516 93.3027 87.8344 94.0686 87.8344 94.4516V97.1323C87.8344 97.8982 88.2172 98.2811 88.9828 98.2811L97.4045 99.43C97.7874 99.43 98.1702 99.813 98.1702 100.196L102.764 107.855C104.295 110.536 103.912 113.982 101.615 116.28L98.553 119.727C98.1702 120.11 98.1702 120.493 98.1702 120.876L98.553 122.025C99.3186 127.386 97.4045 132.364 93.5765 135.811L86.3032 142.321C83.2407 145.002 81.3267 148.832 81.3267 153.044V160.32C81.3267 160.703 81.7095 161.469 82.0923 161.469L85.5376 163.384C86.3032 163.767 86.3032 164.533 86.3032 164.916L85.9204 165.682C84.772 168.745 81.3267 169.894 78.6471 168.362L77.4987 167.596C74.819 166.065 73.6706 163.384 74.0534 160.32L74.4362 158.788C74.4362 158.406 74.4362 157.64 73.6706 157.64C71.3738 156.108 69.8426 153.427 69.8426 150.363V128.152C69.8426 127.769 69.4597 127.386 69.0769 127.003L66.3973 125.471C63.3349 123.556 61.8036 119.727 62.9521 116.28L63.3349 115.514C63.3349 115.131 63.3349 114.365 62.9521 113.982L55.6787 107.855C55.2959 107.472 55.2959 107.089 55.2959 106.706V100.579C55.2959 99.813 55.6787 99.43 56.4444 99.43L58.3584 99.0471C58.7412 99.0471 59.124 98.6641 59.124 98.2811L60.2724 94.4516C60.2724 94.0686 60.2724 93.3027 59.8896 92.9197L58.7412 91.7709C58.3584 91.3879 57.5928 91.3879 57.21 91.7709L55.2959 92.9197C54.5303 93.3027 53.3819 92.9197 53.3819 92.1538L52.9991 88.7072C52.9991 88.3242 52.6163 87.9413 52.2335 87.5583L48.0226 86.0265C47.6398 86.0265 47.257 85.2606 47.257 84.8776C47.257 84.1117 46.8742 83.7287 46.1086 83.7287L36.9213 81.431C34.2416 80.6651 32.7104 77.6014 33.8588 74.9207C34.2416 74.5378 33.8588 73.7718 33.476 73.3889L26.2027 66.4956C25.8199 66.1127 25.8199 65.7297 25.8199 65.3468L27.3511 48.4966C27.3511 47.7307 27.7339 47.3478 28.4996 47.3478C30.7964 46.9648 32.7104 45.05 32.7104 42.7523L33.0932 39.6886C33.0932 39.3056 33.0932 39.3056 32.7104 38.9227L29.2652 33.5613C28.8824 33.1783 28.4996 33.1783 28.1167 32.7954L17.781 32.0294C17.0154 32.0294 16.6326 32.4124 16.2498 33.1783C15.1014 36.242 13.1873 37.7738 10.5077 37.7738Z" fill="url(#paint0_linear)"/>
<path d="M93.1938 28.1997L88.6001 27.4338C86.6861 27.0509 85.9205 25.519 86.3033 23.6043L86.6861 22.0724C87.0689 21.3065 86.6861 20.5406 86.3033 19.7747L83.2408 13.6474C82.858 13.2644 82.858 12.8814 82.858 12.4985V10.9667C82.858 9.81778 83.6236 8.66891 85.1549 8.28595L106.209 2.15863C106.975 1.77567 108.123 2.15863 108.506 2.54159L121.521 10.9667C122.287 11.3496 122.67 12.1155 122.67 12.8814L124.201 19.7747C124.584 21.3065 123.818 22.8383 122.287 23.2213L113.482 26.6679C112.717 27.0509 112.334 27.4338 111.951 27.8168L106.592 36.6248C105.826 37.7737 104.295 38.5396 103.147 37.7737L101.233 37.0078C100.85 37.0078 100.084 36.6248 99.7015 36.2419L94.3422 29.7316C94.3422 28.5827 93.9594 28.1997 93.1938 28.1997Z" fill="url(#paint1_linear)"/>
<path d="M344.314 23.9873C343.931 23.2214 343.166 23.2214 342.783 23.2214L326.705 25.5191C326.322 25.5191 325.557 25.5191 325.174 25.1362L320.58 19.7748C320.197 19.3918 320.197 19.3918 319.815 19.3918L298.378 15.5622C297.995 15.5622 297.995 15.5622 297.612 15.5622L286.128 17.86C281.534 19.0089 276.558 17.477 273.112 14.4134C270.816 12.1156 267.753 10.9667 264.308 10.9667H237.894C237.511 10.9667 237.129 10.9667 237.129 11.3497L231.387 15.1793C231.004 15.5622 230.621 15.9452 230.621 16.3281C230.621 18.2429 229.473 19.7748 227.559 20.5407L223.73 21.6895C222.582 22.0725 221.051 21.6896 220.668 20.1577C220.285 19.7748 219.902 19.3918 219.137 19.3918H207.653H203.059H202.676L191.575 15.9452C188.895 15.1793 186.216 15.1793 183.536 16.3281L180.473 17.86C177.794 19.0089 175.88 20.9236 175.114 23.6043L173.966 26.668C173.2 28.9658 173.2 31.2635 174.349 33.1783L175.497 35.0931C175.88 35.476 176.263 35.859 177.028 35.859H178.559C180.856 35.859 183.153 34.3272 183.919 32.0294C183.919 31.6465 184.302 31.2635 185.067 30.8805L187.364 30.1146C188.512 29.7317 189.278 30.4976 189.661 31.6465L190.044 35.859C190.426 38.5397 188.512 41.2204 186.216 41.9863L180.091 44.2841C179.325 44.667 178.177 43.9011 178.177 43.1352L177.411 40.0715C177.411 39.3056 176.645 38.9226 176.263 38.9226L173.583 38.5397C172.435 38.5397 171.669 38.9227 171.669 40.0715V43.9011C171.669 44.667 171.286 45.05 170.521 45.4329L164.778 46.9648C164.396 46.9648 164.013 47.3477 164.013 47.7307L162.099 51.5603C161.716 51.9432 161.716 52.7091 162.099 53.0921L162.864 54.6239C163.247 55.7728 162.482 56.9217 161.333 56.9217C158.654 56.9217 157.122 59.2194 157.505 61.5172L158.271 64.5808C158.271 65.3467 159.036 65.7297 159.802 65.7297H164.396C165.161 65.7297 165.544 65.3467 165.927 64.5808L166.692 62.2831C166.692 61.5172 167.458 61.1342 168.224 61.1342L173.2 61.5172C173.583 61.5172 173.966 61.5172 173.966 61.1342L176.645 59.6024C177.411 59.2194 178.177 59.2194 178.942 59.9853L181.622 63.8149C182.005 64.1979 182.005 64.5808 182.005 65.3467V65.7297C181.622 66.8786 183.153 68.4104 184.302 67.6445L185.067 67.2615C185.833 66.8786 186.216 66.1126 185.833 65.3467L184.302 60.7512C183.919 59.9853 184.302 59.2194 185.067 58.8364H185.45C186.216 58.4535 186.981 58.8365 187.364 59.2194L189.278 61.5172C191.192 64.1979 195.02 65.3467 198.083 64.1979H198.465C199.231 63.8149 199.614 64.1979 199.997 64.5808L204.59 69.1763C204.973 69.5593 204.973 69.9422 204.973 70.7081L204.207 74.9207C204.207 75.6866 203.442 76.0695 203.059 76.0695L190.044 79.1332C189.661 79.1332 189.278 79.1332 188.895 79.1332L181.622 75.6866C181.239 75.6866 180.856 75.3036 180.856 74.9207C179.325 71.857 176.263 69.5593 172.435 69.5593L166.692 69.1763C166.31 69.1763 165.927 69.1763 165.544 69.5593L155.974 77.2184C150.997 81.048 147.935 86.7924 147.169 92.9197C147.169 93.3026 146.787 93.6856 146.404 94.0686L145.255 94.8345C144.873 95.2174 144.49 95.6004 144.49 96.3663C144.49 101.728 146.787 107.089 150.997 110.536L154.443 113.599C154.825 113.982 155.208 113.982 155.591 113.982H170.521C170.903 113.982 171.286 113.982 171.286 114.365L175.497 117.046C175.88 117.429 176.263 117.812 176.263 118.195L176.645 125.471C176.645 126.237 177.028 126.62 177.411 127.003L182.387 129.301C183.153 129.684 183.536 130.067 183.153 130.832L181.622 144.236C181.239 147.3 182.005 149.98 183.536 152.661L185.45 155.342C185.45 155.725 185.833 155.725 185.833 156.108L186.216 159.937C186.598 164.15 189.661 167.596 193.872 168.362C196.934 168.745 199.997 167.979 202.293 165.682L204.59 163.767C208.418 159.937 210.332 154.959 210.332 149.597V145.385C210.332 145.002 210.715 144.236 211.098 144.236L214.543 141.555C217.606 139.258 219.137 135.811 219.137 131.981V122.407C219.137 122.024 219.137 121.642 219.52 121.259L226.793 113.216C227.176 112.833 227.176 112.451 227.176 111.685C226.41 108.238 223.73 105.557 220.285 104.408L219.52 104.025C216.84 103.26 214.926 100.962 214.926 98.2811C214.926 96.7493 214.16 95.2174 213.012 94.0686L210.332 91.3879C209.949 91.0049 209.949 90.6219 209.949 90.239L210.332 85.2605C210.332 84.4946 211.098 83.7287 211.864 83.7287H210.715C211.098 83.7287 211.864 84.1117 211.864 84.4946L218.371 92.1538C218.754 92.5367 218.754 92.9197 218.754 93.3026V97.1322C218.754 97.8981 219.137 98.6641 219.902 98.6641L222.199 99.43C222.582 99.43 222.965 99.43 223.348 99.43L230.621 95.2174C233.301 93.6856 234.066 90.239 232.152 87.9412L227.176 80.665C226.41 79.5162 227.176 78.3673 228.324 78.3673L232.535 77.9843C233.301 77.9843 233.683 78.3673 234.066 79.1332L235.597 82.9628C235.597 83.3457 235.98 83.3457 235.98 83.7287L244.402 89.856H244.785L250.144 92.1538C250.91 92.5367 251.292 92.9197 251.292 93.6856L250.527 95.9833C250.144 99.43 251.292 102.494 253.589 104.791L258.566 109.387C260.48 111.302 263.925 110.536 265.073 107.855L270.433 93.3026C270.816 92.5367 271.581 92.1538 272.347 92.1538L277.323 92.9197C277.706 92.9197 278.472 93.3026 278.472 94.0686L282.683 105.94C282.683 106.323 283.065 106.323 283.065 106.706L284.597 108.238C285.745 109.387 287.276 108.621 287.276 107.089L286.893 104.408C286.893 103.26 287.659 102.494 288.425 102.877C288.807 102.877 289.19 103.26 289.573 103.26C291.104 104.791 293.018 105.174 294.932 104.025L298.378 101.728C298.76 101.345 299.143 100.962 299.143 100.196L298.76 85.6435C298.76 84.8776 299.143 84.1117 299.909 84.1117L304.12 82.9628C304.502 82.9628 305.268 82.5798 305.268 81.8139L307.182 74.9207C307.182 74.5377 307.182 73.7718 306.799 73.3888L304.12 70.3252C302.206 68.0274 301.823 64.9638 303.354 62.2831L304.12 60.3683C304.502 59.9853 304.885 59.6024 305.268 59.6024C306.799 59.6024 308.33 58.4535 309.096 56.9217L318.666 36.6249C319.049 35.859 320.197 35.476 320.963 35.859L323.26 37.0079C323.643 37.3908 324.025 37.7738 324.025 38.1567V43.5181C324.025 44.2841 324.408 44.667 324.791 45.05C326.705 46.1988 329.002 45.05 330.15 43.1352L333.596 35.859C333.596 35.476 333.978 35.476 334.361 35.0931L342.017 30.4976C344.697 29.7317 345.845 26.668 344.314 23.9873Z" fill="url(#paint2_linear)"/>
<path d="M225.262 135.045C224.496 135.045 223.348 135.428 222.965 136.194L219.902 140.406C219.52 140.789 219.52 141.555 219.52 141.938V148.448C219.52 149.214 219.902 149.597 220.285 150.363L221.434 151.512C222.199 152.661 223.73 152.661 224.879 152.278C225.644 151.895 226.027 151.129 226.41 150.363L228.707 138.875C229.09 137.726 228.324 136.577 227.558 136.194L227.176 135.811C226.41 135.428 225.644 135.045 225.262 135.045Z" fill="url(#paint3_linear)"/>
<path d="M160.185 43.518L162.864 42.7521C163.63 42.3691 164.396 41.6032 164.396 40.8373V35.4759C164.396 34.327 163.63 33.5611 162.482 33.5611C161.716 33.5611 160.568 34.327 160.568 35.0929L160.185 36.6248C160.185 37.3907 159.419 38.1566 158.654 38.1566H157.122C155.974 38.1566 155.591 39.3055 155.591 40.0714V40.8373C155.591 41.9861 156.357 42.7521 157.122 42.7521L159.419 43.135C159.419 43.518 159.802 43.518 160.185 43.518Z" fill="url(#paint4_linear)"/>
<path d="M306.034 130.832L304.885 129.301C304.502 128.918 303.737 128.535 303.354 128.535L297.612 129.684C297.229 129.684 296.846 130.067 296.463 130.45L293.018 134.662C293.018 134.662 292.635 135.045 292.253 135.045L289.573 136.194C286.893 137.726 285.362 140.406 285.362 143.47L285.745 149.214C285.745 149.98 286.51 150.746 287.276 150.746H292.635H298.377C298.76 150.746 299.143 150.746 299.526 151.129L302.588 153.81C302.971 153.81 302.971 154.193 303.354 154.193L312.158 156.108C312.924 156.108 313.69 156.108 314.072 155.342L318.666 149.214C319.049 148.831 319.049 148.449 319.049 148.066V140.789C319.049 140.406 319.049 140.406 319.049 140.023L314.072 128.535C314.072 128.152 313.69 127.769 313.307 127.769C312.158 127.386 310.627 128.152 310.627 129.301C310.627 130.45 309.479 131.215 308.33 131.215L307.182 130.832C306.416 131.598 306.034 131.215 306.034 130.832Z" fill="url(#paint5_linear)"/>
<path d="M316.369 58.4535L317.518 60.7512C317.901 61.5171 317.901 62.283 317.518 62.666L313.69 72.6229C313.307 73.3888 313.307 74.1547 313.69 74.9206L314.838 76.8354C315.221 77.9843 316.369 78.3673 317.518 78.3673C318.666 78.3673 319.432 77.9843 320.197 76.8354L324.791 68.7933C325.174 68.4104 325.174 67.6445 325.174 66.8785L323.26 57.6875C323.26 56.9216 322.494 55.7728 321.729 55.3898L320.197 54.6239C319.432 54.2409 318.283 54.2409 317.135 54.6239C316.369 55.7728 315.987 57.3046 316.369 58.4535Z" fill="url(#paint6_linear)"/>
<path d="M324.791 150.746L324.025 151.895C324.025 151.895 324.025 152.278 323.643 152.278L321.346 156.491C321.346 156.874 320.963 157.256 320.58 157.256L314.455 162.235C313.69 163.001 313.307 164.15 313.69 165.299L314.073 166.065C314.455 166.83 315.221 167.596 316.369 167.596H319.432C320.58 167.596 321.346 166.83 321.729 166.065L324.025 158.788C324.025 158.405 324.408 158.022 324.791 157.639L328.236 154.959C329.385 154.193 329.385 152.661 328.619 151.512L328.236 151.129C327.471 149.597 325.94 149.597 324.791 150.746Z" fill="url(#paint7_linear)"/>
</g>
<defs>
<filter id="filter0_d" x="0" y="0" width="349" height="175.038" filterUnits="userSpaceOnUse" color-interpolation-filters="sRGB">
<feFlood flood-opacity="0" result="BackgroundImageFix"/>
<feColorMatrix in="SourceAlpha" type="matrix" values="0 0 0 0 0 0 0 0 0 0 0 0 0 0 0 0 0 0 127 0"/>
<feOffset dy="2"/>
<feGaussianBlur stdDeviation="2"/>
<feColorMatrix type="matrix" values="0 0 0 0 0.027451 0 0 0 0 0.164706 0 0 0 0 0.266667 0 0 0 0.15 0"/>
<feBlend mode="normal" in2="BackgroundImageFix" result="effect1_dropShadow"/>
<feBlend mode="normal" in="SourceGraphic" in2="effect1_dropShadow" result="shape"/>
</filter>
<linearGradient id="paint0_linear" x1="4" y1="17.4771" x2="136.624" y2="65.6059" gradientUnits="userSpaceOnUse">
<stop stop-color="#4F9FED"/>
<stop offset="1" stop-color="#0074E4"/>
</linearGradient>
<linearGradient id="paint1_linear" x1="82.858" y1="2" x2="127.377" y2="30.2115" gradientUnits="userSpaceOnUse">
<stop stop-color="#4F9FED"/>
<stop offset="1" stop-color="#0074E4"/>
</linearGradient>
<linearGradient id="paint2_linear" x1="144.49" y1="10.9667" x2="346.638" y2="152.972" gradientUnits="userSpaceOnUse">
<stop stop-color="#4F9FED"/>
<stop offset="1" stop-color="#0074E4"/>
</linearGradient>
<linearGradient id="paint3_linear" x1="219.52" y1="135.045" x2="232.397" y2="138.825" gradientUnits="userSpaceOnUse">
<stop stop-color="#4F9FED"/>
<stop offset="1" stop-color="#0074E4"/>
</linearGradient>
<linearGradient id="paint4_linear" x1="155.591" y1="33.5611" x2="166.299" y2="38.7855" gradientUnits="userSpaceOnUse">
<stop stop-color="#4F9FED"/>
<stop offset="1" stop-color="#0074E4"/>
</linearGradient>
<linearGradient id="paint5_linear" x1="285.362" y1="127.669" x2="320.902" y2="150.898" gradientUnits="userSpaceOnUse">
<stop stop-color="#4F9FED"/>
<stop offset="1" stop-color="#0074E4"/>
</linearGradient>
<linearGradient id="paint6_linear" x1="313.403" y1="54.3367" x2="329.92" y2="58.8009" gradientUnits="userSpaceOnUse">
<stop stop-color="#4F9FED"/>
<stop offset="1" stop-color="#0074E4"/>
</linearGradient>
<linearGradient id="paint7_linear" x1="313.54" y1="149.927" x2="332.533" y2="159.188" gradientUnits="userSpaceOnUse">
<stop stop-color="#4F9FED"/>
<stop offset="1" stop-color="#0074E4"/>
</linearGradient>
</defs>
</svg>
