<svg width="712" height="432" viewBox="0 0 712 432" fill="none" xmlns="http://www.w3.org/2000/svg">
<g filter="url(#filter0_d)">
<path d="M20.5188 92.8062H14.6886C13.7169 92.8062 13.7169 92.8062 12.7452 91.8342L4.97169 86.9738C4.97169 86.9738 4 86.0017 4 85.0296V70.4484C4 68.5042 5.94339 67.5322 6.91508 67.5322H19.5471C21.4905 67.5322 23.4339 65.588 22.4622 63.6438L21.4905 55.8672C19.5471 48.0906 26.3489 41.286 34.1225 42.2581L130.32 54.8951C131.292 54.8951 132.264 54.8951 133.235 53.923L136.15 50.0347C140.037 44.2023 147.811 41.286 154.612 41.286L178.905 43.2302C187.65 44.2023 194.452 52.951 191.537 61.6997L190.565 65.588C190.565 66.5601 189.593 67.5322 188.622 67.5322L176.961 74.3367C173.075 77.253 173.075 83.0854 177.933 85.0296C181.82 86.9738 186.678 86.0017 188.622 82.1134C189.593 81.1413 189.593 81.1413 190.565 81.1413L206.112 78.225C213.886 77.253 220.688 80.1692 224.574 86.9738L227.489 91.8342C228.461 92.8062 229.433 93.7783 230.405 93.7783C234.291 93.7783 237.206 96.6945 237.206 100.583V110.304C237.206 117.108 231.376 122.941 223.603 121.969L193.48 119.052C191.537 119.052 189.593 120.997 189.593 122.941C191.537 130.717 187.65 139.466 180.848 143.354L155.584 159.88C154.612 160.852 153.641 161.824 153.641 162.796V172.517C153.641 174.461 151.697 175.433 150.726 175.433H149.754C148.782 175.433 147.811 174.461 146.839 174.461L139.065 163.768C138.094 162.796 137.122 161.824 135.179 162.796L114.773 168.628C113.801 168.628 112.83 169.601 112.83 170.573L106.999 183.21C106.028 185.154 106.999 187.098 108.943 188.07L117.688 190.986C118.66 190.986 119.631 192.93 119.631 193.903V201.679C119.631 203.623 120.603 204.595 122.547 204.595L127.405 205.567C133.235 206.54 137.122 211.4 138.094 217.232C138.094 219.177 140.037 220.149 141.009 220.149H186.678C187.65 220.149 188.622 220.149 189.593 221.121L200.282 232.786C201.254 233.758 202.225 233.758 203.197 233.758H213.886C215.829 233.758 216.801 235.702 216.801 236.674V243.479C216.801 245.423 217.773 246.395 219.716 246.395L241.093 249.311C242.065 249.311 243.037 250.283 243.037 251.255L254.697 270.697C258.584 277.501 257.612 286.25 251.782 292.083L244.008 300.831C243.037 301.803 243.037 302.775 243.037 303.748L244.008 306.664C245.952 320.273 241.093 332.91 231.376 341.659L212.914 358.184C205.141 364.989 200.282 374.709 200.282 385.402V403.872C200.282 404.844 201.254 406.788 202.225 406.788L210.971 411.648C212.914 412.62 212.914 414.565 212.914 415.537L211.942 417.481C209.027 425.257 200.282 428.174 193.48 424.285L190.565 422.341C183.763 418.453 180.848 411.648 181.82 403.872L182.792 399.983C182.792 399.011 182.792 397.067 180.848 397.067C175.018 393.179 171.131 386.374 171.131 378.598V322.217C171.131 321.245 170.16 320.273 169.188 319.301L162.386 315.412C154.612 310.552 150.726 300.831 153.641 292.083L154.612 290.138C154.612 289.166 154.612 287.222 153.641 286.25L135.179 270.697C134.207 269.725 134.207 268.753 134.207 267.781V252.227C134.207 250.283 135.179 249.311 137.122 249.311L141.98 248.339C142.952 248.339 143.924 247.367 143.924 246.395L146.839 236.674C146.839 235.702 146.839 233.758 145.867 232.786L142.952 229.869C141.98 228.897 140.037 228.897 139.065 229.869L134.207 232.786C132.264 233.758 129.348 232.786 129.348 230.842L128.377 222.093C128.377 221.121 127.405 220.149 126.433 219.177L115.745 215.288C114.773 215.288 113.801 213.344 113.801 212.372C113.801 210.428 112.83 209.456 110.886 209.456L87.5656 203.623C80.7638 201.679 76.877 193.903 79.7921 187.098C80.7638 186.126 79.7921 184.182 78.8204 183.21L60.3582 165.712C59.3865 164.74 59.3865 163.768 59.3865 162.796L63.2733 120.024C63.2733 118.08 64.245 117.108 66.1884 117.108C72.0185 116.136 76.877 111.276 76.877 105.443L77.8487 97.6666C77.8487 96.6945 77.8487 96.6945 76.877 95.7225L68.1318 82.1134C67.1601 81.1413 66.1884 81.1413 65.2167 80.1692L38.981 78.225C37.0376 78.225 36.0659 79.1971 35.0942 81.1413C32.1791 88.9179 27.3206 92.8062 20.5188 92.8062Z" fill="url(#paint0_linear)"/>
<path d="M230.405 68.504L218.744 66.5599C213.886 65.5878 211.942 61.6995 212.914 56.8391L213.886 52.9508C214.857 51.0066 213.886 49.0625 212.914 47.1183L205.141 31.565C204.169 30.593 204.169 29.6209 204.169 28.6488V24.7605C204.169 21.8442 206.112 18.928 209.999 17.9559L263.442 2.40265C265.386 1.43057 268.301 2.40265 269.272 3.37473L302.31 24.7605C304.253 25.7325 305.225 27.6767 305.225 29.6209L309.112 47.1183C310.083 51.0066 308.14 54.8949 304.253 55.867L281.904 64.6157C279.961 65.5878 278.989 66.5599 278.018 67.532L264.414 89.8898C262.47 92.806 258.584 94.7502 255.669 92.806L250.81 90.8619C249.838 90.8619 247.895 89.8898 246.923 88.9177L233.32 72.3924C233.32 69.4761 232.348 68.504 230.405 68.504Z" fill="url(#paint1_linear)"/>
<path d="M867.835 57.8113C866.864 55.8671 864.92 55.8671 863.948 55.8671L823.137 61.6996C822.166 61.6996 820.222 61.6996 819.251 60.7275L807.59 47.1184C806.619 46.1463 806.619 46.1463 805.647 46.1463L751.232 36.4255C750.26 36.4255 750.26 36.4255 749.289 36.4255L720.138 42.258C708.478 45.1742 695.846 41.2859 687.1 33.5093C681.27 27.6768 673.497 24.7606 664.751 24.7606H597.705C596.733 24.7606 595.761 24.7606 595.761 25.7326L581.186 35.4534C580.214 36.4255 579.242 37.3976 579.242 38.3697C579.242 43.2301 576.327 47.1184 571.469 49.0625L561.752 51.9788C558.837 52.9509 554.95 51.9788 553.978 48.0905C553.007 47.1184 552.035 46.1463 550.092 46.1463H520.941H509.281H508.309L480.13 37.3976C473.328 35.4534 466.526 35.4534 459.724 38.3697L451.951 42.258C445.149 45.1742 440.29 50.0346 438.347 56.8392L435.432 64.6158C433.488 70.4483 433.488 76.2808 436.404 81.1412L439.319 86.0016C440.29 86.9736 441.262 87.9457 443.205 87.9457H447.092C452.922 87.9457 458.753 84.0574 460.696 78.2249C460.696 77.2528 461.668 76.2808 463.611 75.3087L469.441 73.3645C472.356 72.3925 474.3 74.3366 475.271 77.2529L476.243 87.9457C477.215 94.7503 472.356 101.555 466.526 103.499L450.979 109.331C449.036 110.304 446.12 108.359 446.12 106.415L444.177 98.6386C444.177 96.6945 442.234 95.7224 441.262 95.7224L434.46 94.7503C431.545 94.7503 429.602 95.7224 429.602 98.6386V108.359C429.602 110.304 428.63 111.276 426.687 112.248L412.111 116.136C411.14 116.136 410.168 117.108 410.168 118.08L405.309 127.801C404.338 128.773 404.338 130.717 405.309 131.689L407.253 135.578C408.224 138.494 406.281 141.41 403.366 141.41C396.564 141.41 392.677 147.243 393.649 153.075L395.592 160.852C395.592 162.796 397.536 163.768 399.479 163.768H411.14C413.083 163.768 414.055 162.796 415.026 160.852L416.97 155.019C416.97 153.075 418.913 152.103 420.856 152.103L433.488 153.075C434.46 153.075 435.432 153.075 435.432 152.103L442.234 148.215C444.177 147.243 446.12 147.243 448.064 149.187L454.866 158.908C455.837 159.88 455.837 160.852 455.837 162.796V163.768C454.866 166.684 458.752 170.572 461.668 168.628L463.611 167.656C465.554 166.684 466.526 164.74 465.554 162.796L461.668 151.131C460.696 149.187 461.668 147.243 463.611 146.27H464.583C466.526 145.298 468.469 146.271 469.441 147.243L474.3 153.075C479.158 159.88 488.875 162.796 496.649 159.88H497.62C499.564 158.908 500.535 159.88 501.507 160.852L513.167 172.517C514.139 173.489 514.139 174.461 514.139 176.405L512.196 187.098C512.196 189.042 510.252 190.014 509.281 190.014L476.243 197.791C475.271 197.791 474.3 197.791 473.328 197.791L454.866 189.042C453.894 189.042 452.922 188.07 452.922 187.098C449.036 179.321 441.262 173.489 431.545 173.489L416.97 172.517C415.998 172.517 415.026 172.517 414.055 173.489L389.762 192.93C377.13 202.651 369.357 217.232 367.413 232.786C367.413 233.758 366.442 234.73 365.47 235.702L362.555 237.646C361.583 238.618 360.612 239.59 360.612 241.534C360.612 255.143 366.442 268.753 377.13 277.501L385.876 285.278C386.847 286.25 387.819 286.25 388.791 286.25H426.687C427.658 286.25 428.63 286.25 428.63 287.222L439.319 294.027C440.29 294.999 441.262 295.971 441.262 296.943L442.234 315.412C442.234 317.357 443.205 318.329 444.177 319.301L456.809 325.133C458.752 326.105 459.724 327.077 458.752 329.021L454.866 363.044C453.894 370.821 455.837 377.625 459.724 384.43L464.583 391.235C464.583 392.207 465.554 392.207 465.554 393.179L466.526 402.899C467.498 413.592 475.271 422.341 485.96 424.285C493.733 425.257 501.507 423.313 507.337 417.481L513.167 412.62C522.884 402.899 527.743 390.262 527.743 376.653V365.96C527.743 364.988 528.714 363.044 529.686 363.044L538.431 356.24C546.205 350.407 550.092 341.658 550.092 331.938V307.636C550.092 306.664 550.092 305.692 551.063 304.719L569.525 284.306C570.497 283.334 570.497 282.362 570.497 280.417C568.554 271.669 561.752 264.864 553.007 261.948L551.063 260.976C544.261 259.032 539.403 253.199 539.403 246.395C539.403 242.506 537.46 238.618 534.545 235.702L527.743 228.897C526.771 227.925 526.771 226.953 526.771 225.981L527.743 213.344C527.743 211.4 529.686 209.456 531.629 209.456H528.714C529.686 209.456 531.629 210.428 531.629 211.4L548.148 230.841C549.12 231.813 549.12 232.786 549.12 233.758V243.478C549.12 245.423 550.092 247.367 552.035 247.367L557.865 249.311C558.837 249.311 559.809 249.311 560.78 249.311L579.242 238.618C586.044 234.73 587.988 225.981 583.129 220.149L570.497 201.679C568.554 198.763 570.497 195.847 573.412 195.847L584.101 194.874C586.044 194.874 587.016 195.847 587.988 197.791L591.874 207.511C591.874 208.484 592.846 208.484 592.846 209.456L614.223 225.009H615.195L628.799 230.841C630.742 231.813 631.714 232.786 631.714 234.73L629.77 240.562C628.799 249.311 631.714 257.088 637.544 262.92L650.176 274.585C655.034 279.445 663.78 277.501 666.695 270.697L680.298 233.758C681.27 231.813 683.214 230.841 685.157 230.841L697.789 232.786C698.761 232.786 700.704 233.758 700.704 235.702L711.393 265.836C711.393 266.808 712.364 266.808 712.364 267.78L716.251 271.669C719.166 274.585 723.053 272.641 723.053 268.753L722.081 261.948C722.081 259.032 724.025 257.088 725.968 258.06C726.94 258.06 727.911 259.032 728.883 259.032C732.77 262.92 737.628 263.892 742.487 260.976L751.232 255.143C752.204 254.171 753.175 253.199 753.175 251.255L752.204 214.316C752.204 212.372 753.176 210.428 755.119 210.428L765.808 207.511C766.779 207.511 768.723 206.539 768.723 204.595L773.581 187.098C773.581 186.126 773.581 184.182 772.609 183.21L765.808 175.433C760.949 169.6 759.977 161.824 763.864 155.019L765.808 150.159C766.779 149.187 767.751 148.215 768.723 148.215C772.609 148.215 776.496 145.298 778.439 141.41L802.732 89.8899C803.703 87.9457 806.619 86.9736 808.562 87.9457L814.392 90.862C815.364 91.834 816.336 92.8061 816.336 93.7782V107.387C816.336 109.331 817.307 110.304 818.279 111.276C823.137 114.192 828.968 111.276 831.883 106.415L840.628 87.9457C840.628 86.9736 841.6 86.9736 842.571 86.0016L862.005 74.3366C868.807 72.3925 871.722 64.6158 867.835 57.8113Z" fill="url(#paint2_linear)"/>
<path d="M565.639 339.714C563.695 339.714 560.78 340.686 559.808 342.63L552.035 353.323C551.063 354.295 551.063 356.239 551.063 357.212V373.737C551.063 375.681 552.035 376.653 553.007 378.597L555.922 381.514C557.865 384.43 561.752 384.43 564.667 383.458C566.61 382.486 567.582 380.541 568.554 378.597L574.384 349.435C575.356 346.519 573.412 343.602 571.469 342.63L570.497 341.658C568.554 340.686 566.61 339.714 565.639 339.714Z" fill="url(#paint3_linear)"/>
<path d="M400.451 107.387L407.253 105.443C409.196 104.471 411.14 102.527 411.14 100.582V86.9734C411.14 84.0571 409.196 82.113 406.281 82.113C404.338 82.113 401.423 84.0571 401.423 86.0013L400.451 89.8896C400.451 91.8338 398.508 93.7779 396.564 93.7779H392.677C389.762 93.7779 388.791 96.6942 388.791 98.6383V100.582C388.791 103.499 390.734 105.443 392.677 105.443L398.507 106.415C398.507 107.387 399.479 107.387 400.451 107.387Z" fill="url(#paint4_linear)"/>
</g>
<defs>
<filter id="filter0_d" x="0" y="0" width="873.576" height="432" filterUnits="userSpaceOnUse" color-interpolation-filters="sRGB">
<feFlood flood-opacity="0" result="BackgroundImageFix"/>
<feColorMatrix in="SourceAlpha" type="matrix" values="0 0 0 0 0 0 0 0 0 0 0 0 0 0 0 0 0 0 127 0"/>
<feOffset dy="2"/>
<feGaussianBlur stdDeviation="2"/>
<feColorMatrix type="matrix" values="0 0 0 0 0.027451 0 0 0 0 0.164706 0 0 0 0 0.266667 0 0 0 0.15 0"/>
<feBlend mode="normal" in2="BackgroundImageFix" result="effect1_dropShadow"/>
<feBlend mode="normal" in="SourceGraphic" in2="effect1_dropShadow" result="shape"/>
</filter>
<linearGradient id="paint0_linear" x1="4" y1="41.286" x2="340.647" y2="163.454" gradientUnits="userSpaceOnUse">
<stop stop-color="#4F9FED"/>
<stop offset="1" stop-color="#0074E4"/>
</linearGradient>
<linearGradient id="paint1_linear" x1="204.169" y1="2" x2="317.172" y2="73.6106" gradientUnits="userSpaceOnUse">
<stop stop-color="#4F9FED"/>
<stop offset="1" stop-color="#0074E4"/>
</linearGradient>
<linearGradient id="paint2_linear" x1="360.612" y1="24.7606" x2="873.734" y2="385.22" gradientUnits="userSpaceOnUse">
<stop stop-color="#4F9FED"/>
<stop offset="1" stop-color="#0074E4"/>
</linearGradient>
<linearGradient id="paint3_linear" x1="551.063" y1="339.714" x2="583.75" y2="349.308" gradientUnits="userSpaceOnUse">
<stop stop-color="#4F9FED"/>
<stop offset="1" stop-color="#0074E4"/>
</linearGradient>
<linearGradient id="paint4_linear" x1="388.791" y1="82.113" x2="415.971" y2="95.3743" gradientUnits="userSpaceOnUse">
<stop stop-color="#4F9FED"/>
<stop offset="1" stop-color="#0074E4"/>
</linearGradient>
</defs>
</svg>
