<svg width="165" height="47" viewBox="0 0 165 47" fill="none" xmlns="http://www.w3.org/2000/svg">
<g clip-path="url(#clip0)">
<path d="M56.8793 26.1356C55.4785 25.3615 54.7413 24.7349 54.7413 23.8502C54.7413 22.7074 55.7365 22.007 57.3216 22.007C59.1648 22.007 60.7867 22.7811 60.7867 22.7811L62.0769 18.8368C62.0769 18.8368 60.8973 17.9153 57.3954 17.9153C52.5295 17.9153 49.1381 20.7168 49.1381 24.6243C49.1381 26.836 50.7232 28.5317 52.8244 29.7482C54.5201 30.7066 55.1099 31.407 55.1099 32.4023C55.1099 33.4713 54.262 34.3192 52.6769 34.3192C50.3177 34.3192 48.106 33.1027 48.106 33.1027L46.742 37.047C46.742 37.047 48.8063 38.4109 52.2346 38.4109C57.2479 38.4109 60.8236 35.9411 60.8236 31.5176C60.8973 29.0847 59.0542 27.389 56.8793 26.1356Z" fill="#91B7DC"/>
<path d="M76.8589 17.8416C74.3891 17.8416 72.4722 19.0212 70.9609 20.7906L70.8871 20.7537L73.0252 9.54744H67.4589L62.0401 38.0423H67.6063L69.4495 28.3106C70.1867 24.6243 72.0667 22.3757 73.8361 22.3757C75.0895 22.3757 75.5687 23.2235 75.5687 24.44C75.5687 25.2141 75.495 26.1357 75.3107 26.9098L73.2095 38.0792H78.7757L80.9507 26.578C81.2087 25.3616 81.3561 23.9239 81.3561 22.9286C81.393 19.7216 79.7342 17.8416 76.8589 17.8416Z" fill="#91B7DC"/>
<path d="M94 17.8416C87.2909 17.8416 82.8305 23.887 82.8305 30.6329C82.8305 34.9459 85.4847 38.4478 90.498 38.4478C97.0964 38.4478 101.52 32.5498 101.52 25.6565C101.557 21.6384 99.2345 17.8416 94 17.8416ZM91.2721 34.1349C89.3552 34.1349 88.5811 32.5129 88.5811 30.4855C88.5811 27.2784 90.24 22.0808 93.2627 22.0808C95.2533 22.0808 95.88 23.7765 95.88 25.4353C95.88 28.9004 94.2211 34.1349 91.2721 34.1349Z" fill="#91B7DC"/>
<path d="M115.823 17.8416C112.063 17.8416 109.925 21.1592 109.925 21.1592H109.851L110.183 18.1733H105.243C104.985 20.2008 104.543 23.2604 104.101 25.5827L100.23 46.0047H105.796L107.345 37.7474H107.455C107.455 37.7474 108.598 38.4847 110.736 38.4847C117.297 38.4847 121.574 31.7757 121.574 24.9929C121.574 21.1961 119.915 17.8416 115.823 17.8416ZM110.515 34.2455C109.077 34.2455 108.229 33.4345 108.229 33.4345L109.151 28.2368C109.814 24.7717 111.621 22.4494 113.537 22.4494C115.233 22.4494 115.749 24.0345 115.749 25.509C115.749 29.0847 113.611 34.2455 110.515 34.2455Z" fill="#91B7DC"/>
<path d="M129.536 9.80545C127.766 9.80545 126.329 11.2062 126.329 13.0494C126.329 14.7082 127.361 15.8509 128.946 15.8509H129.02C130.752 15.8509 132.264 14.6713 132.301 12.607C132.337 10.9851 131.231 9.80545 129.536 9.80545Z" fill="#91B7DC"/>
<path d="M121.721 38.0423H127.324L131.121 18.2839H125.481L121.721 38.0423Z" fill="#91B7DC"/>
<path d="M145.276 18.2102H141.405L141.59 17.2886C141.922 15.3717 143.027 13.6761 144.907 13.6761C145.903 13.6761 146.677 13.971 146.677 13.971L147.783 9.62115C147.783 9.62115 146.824 9.14194 144.76 9.14194C142.769 9.14194 140.816 9.69488 139.304 10.9851C137.387 12.607 136.503 14.9294 136.06 17.2886L135.913 18.2102H133.333L132.522 22.4125H135.102L132.153 38.0055H137.719L140.668 22.4125H144.502L145.276 18.2102Z" fill="#91B7DC"/>
<path d="M158.694 18.2839C158.694 18.2839 155.192 27.0572 153.644 31.8494H153.57C153.46 30.3011 152.206 18.2839 152.206 18.2839H146.345L149.7 36.4203C149.773 36.8258 149.737 37.0839 149.589 37.3419C148.926 38.5952 147.857 39.8117 146.566 40.6964C145.534 41.4705 144.355 41.9498 143.433 42.2815L144.981 47C146.124 46.7419 148.446 45.8203 150.437 43.9772C152.981 41.5811 155.34 37.9317 157.736 32.9184L164.555 18.2839H158.694Z" fill="#91B7DC"/>
<path d="M26.5412 45.8204L40.3278 42.8345C40.3278 42.8345 35.3514 9.17881 35.3145 8.95764C35.2776 8.73646 35.0933 8.58901 34.909 8.58901C34.7247 8.58901 31.2227 8.33097 31.2227 8.33097C31.2227 8.33097 28.7898 5.89803 28.4949 5.63999C28.4212 5.56626 28.3474 5.5294 28.2737 5.49254L26.5412 45.8204Z" fill="#91B7DC"/>
<path d="M27.6839 5.41882C27.6471 5.41882 27.5733 5.45569 27.5365 5.45569C27.4996 5.45569 26.9835 5.60314 26.1725 5.86118C25.3616 3.50196 23.9239 1.32706 21.3804 1.32706C21.3067 1.32706 21.2329 1.32706 21.1592 1.32706C20.422 0.40549 19.5373 0 18.7631 0C12.8282 0 9.9898 7.40941 9.1051 11.1694C6.81961 11.8698 5.16078 12.3859 4.97647 12.4596C3.68627 12.8651 3.64941 12.902 3.50196 14.1184C3.35451 15.0031 0 40.9914 0 40.9914L25.9145 45.8573L27.6839 5.41882ZM20.938 7.2251C20.938 7.29882 20.938 7.40941 20.938 7.48314C19.5004 7.92549 17.9153 8.40471 16.3671 8.88392C17.2518 5.49255 18.9106 3.83373 20.3482 3.20706C20.7169 4.16549 20.938 5.45569 20.938 7.2251ZM18.5788 1.5851C18.8369 1.5851 19.0949 1.65882 19.3529 1.84314C17.4729 2.72784 15.4086 4.97647 14.5608 9.47373C13.3075 9.87922 12.091 10.2478 10.9482 10.5796C11.9435 7.15137 14.3396 1.5851 18.5788 1.5851ZM19.611 21.6016C19.611 21.6016 18.0627 20.7906 16.2196 20.7906C13.4549 20.7906 13.3443 22.5231 13.3443 22.9655C13.3443 25.3247 19.5373 26.2463 19.5373 31.8126C19.5373 36.1992 16.7725 39.0008 13.0125 39.0008C8.51529 39.0008 6.2298 36.1992 6.2298 36.1992L7.44627 32.218C7.44627 32.218 9.80549 34.2455 11.7961 34.2455C13.0863 34.2455 13.6392 33.2133 13.6392 32.4761C13.6392 29.3796 8.55216 29.2322 8.55216 24.1451C8.55216 19.869 11.6118 15.7035 17.8416 15.7035C20.2376 15.7035 21.4173 16.4039 21.4173 16.4039L19.611 21.6016ZM21.9702 2.94902C23.2973 3.09647 24.1451 4.60784 24.698 6.30353C24.0345 6.52471 23.2973 6.74588 22.4863 7.00392C22.4863 6.85647 22.4863 6.70902 22.4863 6.52471C22.4863 5.08706 22.302 3.90745 21.9702 2.94902Z" fill="#91B7DC"/>
</g>
<defs>
<clipPath id="clip0">
<rect width="164.518" height="47" fill="white"/>
</clipPath>
</defs>
</svg>
