<svg width="189" height="47" viewBox="0 0 189 47" fill="none" xmlns="http://www.w3.org/2000/svg">
<path d="M0.942131 10.2683C0.942131 10.2683 5.57871 29.2677 6.3187 32.3516C7.18239 35.951 8.7386 37.2758 13.2255 36.3824L16.1207 24.6029C16.8545 21.6769 17.3466 19.5909 17.8183 16.6145H17.9013C18.2327 19.6202 18.7047 21.6857 19.3085 24.6131C19.3085 24.6131 20.4871 29.9607 21.0906 32.7694C21.6957 35.5772 23.3798 37.3468 27.7747 36.3834L34.6732 10.2703H29.1035L26.7484 21.5602C26.1152 24.8465 25.5406 27.4144 25.0976 30.4208H25.019C24.6164 27.4443 24.1043 24.9782 23.4606 21.7764L21.0083 10.2703H15.2051L12.5821 21.4865C11.839 24.8948 11.1439 27.647 10.7019 30.5515H10.6219C10.1692 27.8162 9.56635 24.3572 8.91351 21.0579C8.91351 21.0579 7.35509 13.0355 6.80831 10.2703L0.942673 10.271L0.942131 10.2683ZM54.038 10.2683V36.3814H59.3409V30.8364V10.267H54.038V10.2683ZM128.724 10.2683V29.5324C128.724 32.1884 129.224 34.0492 130.293 35.1861C131.227 36.1803 132.766 36.8242 134.61 36.8242C136.178 36.8242 137.721 36.5268 138.448 36.256L138.379 32.112C137.838 32.2451 137.216 32.3517 136.365 32.3517C134.558 32.3517 133.953 31.1947 133.953 28.8099V21.4396H138.571V16.4434H133.953V10.2684H128.723L128.724 10.2683ZM42.1873 16.3219C38.8917 16.3219 36.2757 17.2472 34.8497 18.0712L35.8933 21.6447C37.1983 20.8219 39.2763 20.1408 41.2438 20.1408C44.5014 20.1325 45.034 21.9828 45.034 23.1695V23.4501C37.9358 23.4395 33.4521 25.8957 33.4521 30.9025C33.4521 33.9594 35.7346 36.8241 39.7034 36.8241C42.1465 36.8241 44.1898 35.8497 45.4143 34.2885H45.5344C45.5344 34.2885 46.3453 37.679 50.8128 36.3825C50.5781 34.9713 50.5019 33.4668 50.5019 31.6547V24.6787C50.5019 20.2325 48.6035 16.3219 42.1874 16.3219L42.1873 16.3219ZM73.9084 16.3219C70.5901 16.3219 69.0989 18.0035 68.1947 19.4302H68.1161V16.7647H63.0554V36.3826H68.3865V24.8775C68.3865 24.3382 68.4482 23.7678 68.6364 23.2717C69.0781 22.1133 70.1558 20.7583 71.8765 20.7583C74.0275 20.7583 75.0341 22.5769 75.0341 25.2015V36.3824H80.3595V24.7381C80.3595 24.2233 80.4301 23.6031 80.5816 23.1479C81.0194 21.8302 82.1812 20.7581 83.7807 20.7581C85.9614 20.7581 87.008 22.5451 87.008 25.6334V36.3825H92.3371V24.8281C92.3371 18.7346 89.243 16.322 85.7502 16.322C84.2034 16.322 82.9825 16.7098 81.8786 17.3875C80.9507 17.9568 80.1202 18.7658 79.3941 19.8309H79.3156C78.4709 17.7167 76.4891 16.322 73.9075 16.322L73.9084 16.3219ZM103.183 16.3219C99.8881 16.3219 97.2725 17.2472 95.8453 18.0712L96.8903 21.6447C98.1941 20.8219 100.273 20.1408 102.24 20.1408C105.495 20.1325 106.029 21.9828 106.029 23.1695V23.4501C98.9318 23.4395 94.4477 25.8957 94.4477 30.9025C94.4477 33.9594 96.7313 36.8241 100.702 36.8241C103.143 36.8241 105.187 35.8497 106.41 34.2885H106.53C106.53 34.2885 107.341 37.679 111.809 36.3825C111.574 34.9713 111.499 33.4668 111.499 31.6547V24.6787C111.499 20.2325 109.6 16.3219 103.183 16.3219L103.183 16.3219ZM125.321 16.3219C123.28 16.3219 120.957 17.6396 119.983 20.4644H119.834V16.7644H115.035V36.3824H120.505V26.3368C120.505 25.7948 120.538 25.3223 120.624 24.889C121.029 22.7847 122.638 21.4395 124.948 21.4395C125.582 21.4395 126.036 21.5082 126.527 21.5791V16.4432C126.116 16.36 125.834 16.3217 125.322 16.3217L125.321 16.3219ZM45.2052 26.9265V29.3739C45.2052 29.7359 45.1737 30.1094 45.0734 30.436C44.663 31.7953 43.2549 32.9439 41.4947 32.9439C40.0272 32.9439 38.8614 32.111 38.8614 30.3491C38.8614 27.654 41.8281 26.909 45.2054 26.9265H45.2052ZM106.201 26.9265V29.3739C106.201 29.7359 106.169 30.1094 106.069 30.436C105.659 31.7953 104.251 32.9439 102.491 32.9439C101.023 32.9439 99.857 32.111 99.857 30.3491C99.857 27.654 102.824 26.909 106.201 26.9265H106.201Z" fill="#91B7DC"/>
<path d="M167.242 0.824432C165.53 0.824432 164.17 1.78044 164.17 2.94427L165.209 14.7168C165.324 15.4261 166.193 15.9732 167.243 15.9732C168.296 15.9718 169.161 15.4252 169.279 14.7168L170.323 2.94427C170.323 1.78054 168.959 0.824532 167.244 0.824532L167.242 0.824432ZM150.3 10.2678C149.411 10.2889 148.401 10.9618 147.759 12.0752C146.9 13.5579 147.052 15.2149 148.057 15.7962L158.771 20.7856C159.441 21.0345 160.35 20.5592 160.876 19.6517C160.876 19.6516 160.876 19.6514 160.876 19.6512C161.405 18.7393 161.364 17.7139 160.807 17.259L151.131 10.472C150.879 10.3264 150.597 10.2609 150.3 10.2679L150.3 10.2678ZM184.185 10.2678C183.889 10.2608 183.607 10.3263 183.356 10.4718L173.678 17.2589C173.124 17.7137 173.083 18.7391 173.61 19.6511L173.61 19.6516C174.138 20.5591 175.044 21.0344 175.714 20.7855L186.432 15.7963C187.442 15.215 187.586 13.5581 186.733 12.0753C186.088 10.9618 185.077 10.289 184.188 10.2679L184.185 10.2678ZM159.171 25.8C159.033 25.7981 158.898 25.8195 158.773 25.8668L148.059 30.8503C147.054 31.4341 146.902 33.0917 147.761 34.5759C148.617 36.0557 150.126 36.7592 151.131 36.1789L160.809 29.3971C161.365 28.9367 161.406 27.9116 160.877 27.0005L160.882 27.0025C160.454 26.2604 159.772 25.808 159.171 25.7998L159.171 25.8ZM175.318 25.8C174.718 25.8081 174.037 26.2605 173.609 27.0026L173.612 27.0006C173.086 27.9117 173.127 28.9368 173.68 29.3972L183.358 36.179C184.361 36.7594 185.872 36.0559 186.732 34.5761C187.585 33.0918 187.441 31.4342 186.432 30.8504L175.716 25.867C175.591 25.8196 175.456 25.7982 175.318 25.8001L175.318 25.8ZM167.241 30.6789C166.192 30.6802 165.325 31.225 165.211 31.9324L164.171 43.7044C164.171 44.8702 165.532 45.8243 167.244 45.8243C168.959 45.8243 170.322 44.8702 170.322 43.7044L169.28 31.9324C169.163 31.225 168.297 30.6803 167.245 30.6789H167.241H167.241Z" fill="#91B7DC"/>
</svg>
