<svg width="233" height="47" viewBox="0 0 233 47" fill="none" xmlns="http://www.w3.org/2000/svg">
<path fill-rule="evenodd" clip-rule="evenodd" d="M7.32479 0H71.5679C75.6336 0 78.9248 3.29258 78.9248 7.35989V31.8929C78.9248 35.9602 75.6336 39.2527 71.5679 39.2527H48.5295L51.6916 47L37.7846 39.2527H7.35706C3.29145 39.2527 0.000235245 35.9602 0.000235245 31.8929V7.35989C-0.0320315 3.32486 3.25918 0 7.32479 0Z" fill="#91B7DC"/>
<path d="M3.93836 6.68226C4.3901 6.06893 5.0677 5.74613 5.97117 5.68157C7.61677 5.55245 8.55251 6.32718 8.77837 8.00575C9.77864 14.7523 10.8757 20.4659 12.0373 25.1465L19.1037 11.6857C19.7491 10.459 20.5557 9.81344 21.5237 9.74888C22.9435 9.65204 23.8147 10.5559 24.1696 12.4604C24.9763 16.7537 26.0088 20.4013 27.235 23.5002C28.0739 15.3011 29.4936 9.3938 31.4942 5.74613C31.9782 4.84229 32.688 4.39037 33.6238 4.32581C34.3659 4.26125 35.0435 4.48721 35.6566 4.97141C36.2696 5.45561 36.5923 6.06893 36.6568 6.81138C36.6891 7.39242 36.5923 7.87663 36.3342 8.36083C35.0758 10.685 34.0432 14.5909 33.2043 20.014C32.3976 25.2757 32.1072 29.3752 32.3008 32.3127C32.3654 33.1197 32.2363 33.8299 31.9136 34.4432C31.5264 35.1534 30.9456 35.5408 30.2035 35.6053C29.3646 35.6699 28.4934 35.2825 27.6544 34.4109C24.6536 31.3443 22.2659 26.7605 20.5235 20.6596C18.4261 24.7915 16.8773 27.8903 15.8771 29.9563C13.9733 33.6039 12.36 35.4762 11.0048 35.573C10.1336 35.6376 9.39145 34.8951 8.74611 33.3457C7.10051 29.117 5.32584 20.9501 3.4221 8.84503C3.3253 8.00575 3.48663 7.2633 3.93836 6.68226Z" fill="#F8FAFD"/>
<path d="M73.3094 11.7501C72.1478 9.71646 70.4376 8.48981 68.1467 8.0056C67.5336 7.87648 66.9528 7.81192 66.4043 7.81192C63.3067 7.81192 60.7899 9.42593 58.8216 12.654C57.1437 15.3978 56.3048 18.4321 56.3048 21.757C56.3048 24.2426 56.821 26.373 57.8536 28.1485C59.0152 30.1821 60.7253 31.4088 63.0163 31.893C63.6293 32.0221 64.2101 32.0866 64.7587 32.0866C67.8886 32.0866 70.4054 30.4726 72.3414 27.2446C74.0192 24.4685 74.8582 21.4342 74.8582 18.1093C74.8582 15.5915 74.3419 13.4932 73.3094 11.7501ZM69.2438 20.6917C68.792 22.8222 67.9853 24.404 66.7915 25.4692C65.8557 26.3085 64.9845 26.6636 64.1779 26.5022C63.4035 26.3408 62.7581 25.6629 62.2741 24.4039C61.8869 23.4033 61.6933 22.4026 61.6933 21.4665C61.6933 20.6595 61.7579 19.8524 61.9192 19.11C62.2096 17.7865 62.7581 16.4953 63.6293 15.2687C64.6941 13.6869 65.8235 13.0413 66.9851 13.2673C67.7595 13.4287 68.4048 14.1066 68.8888 15.3655C69.276 16.3662 69.4696 17.3669 69.4696 18.303C69.4696 19.1423 69.3728 19.9493 69.2438 20.6917Z" fill="#F8FAFD"/>
<path d="M53.0789 11.7501C51.9173 9.71643 50.1749 8.48978 47.9162 8.00557C47.3031 7.87645 46.7223 7.81189 46.1738 7.81189C43.0762 7.81189 40.5594 9.4259 38.5911 12.6539C36.9133 15.3977 36.0743 18.4321 36.0743 21.7569C36.0743 24.2425 36.5906 26.373 37.6231 28.1484C38.7847 30.1821 40.4949 31.4087 42.7858 31.8929C43.3989 32.0221 43.9797 32.0866 44.5282 32.0866C47.6581 32.0866 50.1749 30.4726 52.1109 27.2446C53.7887 24.4685 54.6277 21.4341 54.6277 18.1093C54.6277 15.5914 54.1114 13.4932 53.0789 11.7501ZM49.0133 20.6917C48.5615 22.8222 47.7549 24.4039 46.561 25.4692C45.6253 26.3085 44.7541 26.6635 43.9474 26.5021C43.173 26.3407 42.5277 25.6628 42.0437 24.4039C41.6565 23.4032 41.4629 22.4026 41.4629 21.4664C41.4629 20.6594 41.5274 19.8524 41.6887 19.11C41.9791 17.7865 42.5277 16.4953 43.3989 15.2686C44.4637 13.6869 45.593 13.0413 46.7546 13.2672C47.529 13.4286 48.1743 14.1065 48.6583 15.3655C49.0455 16.3661 49.2391 17.3668 49.2391 18.303C49.2391 19.1422 49.1746 19.9493 49.0133 20.6917Z" fill="#F8FAFD"/>
<path d="M87.0895 11.4595C84.9277 13.59 83.8629 16.3015 83.8629 19.5941C83.8629 23.1127 84.9277 25.9856 87.0573 28.1484C89.1869 30.3111 91.9618 31.4087 95.4144 31.4087C96.4146 31.4087 97.544 31.2473 98.7701 30.8922V25.6628C97.6408 25.9856 96.6728 26.147 95.8338 26.147C94.1237 26.147 92.7685 25.566 91.736 24.4361C90.7034 23.2741 90.1871 21.7246 90.1871 19.7555C90.1871 17.9155 90.7034 16.3984 91.7037 15.2363C92.7362 14.0419 93.9946 13.4609 95.5434 13.4609C96.5437 13.4609 97.6085 13.6223 98.7701 13.9451V8.71568C97.7053 8.42516 96.5114 8.29603 95.253 8.29603C91.9618 8.26375 89.2514 9.329 87.0895 11.4595ZM109.483 8.26375C106.514 8.26375 104.191 9.26444 102.513 11.2335C100.835 13.2026 100.029 15.9787 100.029 19.5296C100.029 23.3709 100.867 26.3084 102.513 28.3421C104.159 30.3757 106.579 31.4087 109.741 31.4087C112.806 31.4087 115.162 30.3757 116.807 28.3421C118.453 26.3084 119.292 23.4355 119.292 19.7555C119.292 16.0756 118.453 13.2349 116.775 11.2335C115.065 9.26444 112.645 8.26375 109.483 8.26375ZM112.032 25.0495C111.451 25.9533 110.58 26.4052 109.483 26.4052C108.45 26.4052 107.676 25.9533 107.127 25.0495C106.579 24.1456 106.321 22.3379 106.321 19.5941C106.321 15.3654 107.385 13.2672 109.547 13.2672C111.806 13.2672 112.968 15.3977 112.968 19.691C112.935 22.3379 112.613 24.1456 112.032 25.0495ZM135.232 8.87708L134.07 13.816C133.78 15.0749 133.489 16.3661 133.231 17.6896L132.586 21.1113C131.973 17.6896 131.134 13.6223 130.069 8.87708H122.583L119.776 30.8599H125.39L126.907 15.7205L130.747 30.8599H134.748L138.426 15.7528L140.007 30.8599H145.88L142.911 8.87708H135.232ZM162.11 8.87708L160.948 13.816C160.658 15.0749 160.367 16.3661 160.109 17.6896L159.464 21.1113C158.851 17.6896 158.012 13.6223 156.947 8.87708H149.461L146.654 30.8599H152.268L153.785 15.7205L157.625 30.8599H161.626L165.272 15.7528L166.853 30.8599H172.726L169.757 8.87708H162.11ZM180.373 22.1765H185.632V17.625H180.373V13.59H186.439V8.90935H174.436V30.8922H186.471V26.2116H180.373V22.1765ZM203.186 18.6903C203.799 17.6896 204.121 16.6566 204.121 15.5914C204.121 13.5254 203.315 11.8791 201.701 10.6848C200.088 9.4904 197.861 8.87708 195.087 8.87708H188.181V30.8599H194.119V20.853H194.215L199.023 30.8599H205.283L200.54 20.9499C201.669 20.4334 202.572 19.691 203.186 18.6903ZM194.086 18.3352V13.1058C195.506 13.1381 196.506 13.364 197.119 13.816C197.732 14.2679 198.023 14.978 198.023 16.011C198.023 17.5282 196.7 18.3029 194.086 18.3352ZM207.606 11.4595C205.444 13.59 204.379 16.3015 204.379 19.5941C204.379 23.1127 205.444 25.9856 207.574 28.1484C209.703 30.3111 212.478 31.4087 215.931 31.4087C216.931 31.4087 218.06 31.2473 219.287 30.8922V25.6628C218.157 25.9856 217.189 26.147 216.35 26.147C214.64 26.147 213.285 25.566 212.252 24.4361C211.22 23.2741 210.704 21.7246 210.704 19.7555C210.704 17.9155 211.22 16.3984 212.22 15.2363C213.253 14.0419 214.511 13.4609 216.06 13.4609C217.06 13.4609 218.125 13.6223 219.287 13.9451V8.71568C218.222 8.42516 217.028 8.29603 215.77 8.29603C212.511 8.26375 209.768 9.329 207.606 11.4595ZM226.869 26.147V22.1442H232.129V17.5927H226.869V13.5577H232.968V8.87708H220.965V30.8599H233V26.1793H226.869V26.147Z" fill="#91B7DC"/>
</svg>
